<svg xmlns="http://www.w3.org/2000/svg" xmlns:xlink="http://www.w3.org/1999/xlink" width="500" zoomAndPan="magnify" viewBox="0 0 375 374.999991" height="500" preserveAspectRatio="xMidYMid meet" version="1.0"><defs><g/><clipPath id="4011e7795a"><path d="M 65.3125 76.679688 L 202.757812 76.679688 L 202.757812 276 L 65.3125 276 Z M 65.3125 76.679688 " clip-rule="nonzero"/></clipPath><clipPath id="6fbd207b58"><path d="M 176.027344 176.355469 L 309.6875 176.355469 L 309.6875 242.933594 L 176.027344 242.933594 Z M 176.027344 176.355469 " clip-rule="nonzero"/></clipPath></defs><rect x="-37.5" width="450" fill="#ffffff" y="-37.499999" height="449.999989" fill-opacity="1"/><rect x="-37.5" width="450" fill="#0a1b37" y="-37.499999" height="449.999989" fill-opacity="1"/><g clip-path="url(#4011e7795a)"><path fill="#b89579" d="M 202.683594 275.839844 L 95.425781 275.839844 L 95.425781 117.304688 L 67.277344 145.453125 L 67.277344 274.851562 L 65.3125 274.851562 L 65.3125 144.640625 L 95.425781 114.527344 L 95.425781 83.375 L 111 98.949219 L 133.0625 76.890625 L 202.679688 146.507812 L 202.679688 275.839844 Z M 97.390625 273.871094 L 200.714844 273.871094 L 200.714844 147.324219 L 133.0625 79.667969 L 112.390625 100.339844 L 165.683594 153.632812 L 165.683594 211.117188 L 163.714844 211.117188 L 163.714844 154.445312 L 111.003906 101.734375 L 97.390625 115.339844 Z M 97.390625 88.121094 L 97.390625 112.558594 L 109.613281 100.339844 Z M 149.3125 274.839844 L 148.652344 226.945312 L 118.683594 226.945312 L 118.683594 274.855469 L 120.652344 274.855469 L 120.652344 228.914062 L 146.714844 228.914062 L 147.351562 274.867188 Z M 149.3125 274.839844 " fill-opacity="1" fill-rule="nonzero"/></g><g clip-path="url(#6fbd207b58)"><path fill="#0a1b37" d="M 176.027344 176.355469 L 309.699219 176.355469 L 309.699219 242.933594 L 176.027344 242.933594 Z M 176.027344 176.355469 " fill-opacity="1" fill-rule="nonzero"/></g><g fill="#b89579" fill-opacity="1"><g transform="translate(197.647974, 236.400877)"><g><path d="M 14.984375 0 L 14.984375 -16.15625 L 7.296875 -16.15625 L 7.296875 0 L 3.21875 0 L 3.21875 -35.6875 L 7.296875 -35.6875 L 7.296875 -19.421875 L 14.984375 -19.421875 L 14.984375 -35.6875 L 19.015625 -35.6875 L 19.015625 0 Z M 14.984375 0 "/></g></g></g><g fill="#b89579" fill-opacity="1"><g transform="translate(225.227853, 236.400877)"><g><path d="M 18.453125 -25.03125 L 18.453125 -10.65625 C 18.453125 -6.34375 17.765625 -3.359375 16.390625 -1.703125 C 15.015625 -0.0546875 13.039062 0.765625 10.46875 0.765625 C 7.90625 0.765625 5.9375 -0.0546875 4.5625 -1.703125 C 3.1875 -3.359375 2.5 -6.34375 2.5 -10.65625 L 2.5 -25.03125 C 2.5 -29.351562 3.1875 -32.335938 4.5625 -33.984375 C 5.9375 -35.628906 7.90625 -36.453125 10.46875 -36.453125 C 13.039062 -36.453125 15.015625 -35.628906 16.390625 -33.984375 C 17.765625 -32.335938 18.453125 -29.351562 18.453125 -25.03125 Z M 14.421875 -9.890625 L 14.421875 -25.796875 C 14.421875 -30.691406 13.113281 -33.140625 10.5 -33.140625 C 9.238281 -33.140625 8.257812 -32.613281 7.5625 -31.5625 C 6.875 -30.507812 6.53125 -28.585938 6.53125 -25.796875 L 6.53125 -9.890625 C 6.53125 -7.097656 6.875 -5.175781 7.5625 -4.125 C 8.257812 -3.070312 9.238281 -2.546875 10.5 -2.546875 C 13.113281 -2.546875 14.421875 -4.992188 14.421875 -9.890625 Z M 14.421875 -9.890625 "/></g></g></g><g fill="#b89579" fill-opacity="1"><g transform="translate(251.533318, 236.400877)"><g><path d="M 7.1875 0 L 3.21875 0 L 3.21875 -35.6875 L 9.4375 -35.6875 L 13.765625 -10.96875 L 18.15625 -35.6875 L 24.375 -35.6875 L 24.375 0 L 20.390625 0 L 20.390625 -32.21875 L 16.0625 -7.640625 L 11.515625 -7.640625 L 7.1875 -32.21875 Z M 7.1875 0 "/></g></g></g><g fill="#b89579" fill-opacity="1"><g transform="translate(284.465744, 236.400877)"><g><path d="M 7.296875 -16.15625 L 7.296875 -3.265625 L 16.15625 -3.265625 L 16.15625 0 L 3.21875 0 L 3.21875 -35.6875 L 16.015625 -35.6875 L 16.015625 -32.421875 L 7.296875 -32.421875 L 7.296875 -19.421875 L 15.25 -19.421875 L 15.25 -16.15625 Z M 7.296875 -16.15625 "/></g></g></g><g fill="#e6d8ce" fill-opacity="1"><g transform="translate(180.628176, 192.749987)"><g><path d="M 10.789062 4.140625 C 10.753906 4.140625 10.714844 4.066406 10.675781 4.066406 C 10.789062 3.988281 10.753906 4.140625 10.789062 4.21875 C 10.980469 4.371094 11.207031 4.445312 11.398438 4.445312 C 11.664062 4.445312 11.929688 4.371094 12.160156 4.292969 C 12.691406 4.179688 13.183594 3.988281 13.679688 3.988281 C 13.792969 3.988281 13.867188 3.988281 13.945312 3.988281 C 14.058594 3.988281 14.210938 3.988281 14.324219 3.914062 C 14.398438 3.914062 14.476562 3.914062 14.515625 3.835938 C 14.550781 3.722656 14.589844 3.683594 14.628906 3.683594 C 14.667969 3.683594 14.703125 3.683594 14.78125 3.722656 C 15.046875 3.761719 15.351562 3.761719 15.652344 3.761719 C 15.882812 3.761719 16.035156 3.722656 16.035156 3.34375 C 16.035156 3.152344 16.109375 3.152344 16.261719 3.152344 C 16.300781 3.152344 16.375 3.191406 16.375 3.191406 C 16.453125 3.382812 16.375 3.496094 16.300781 3.535156 C 16.261719 3.535156 16.261719 3.648438 16.222656 3.761719 C 16.566406 3.761719 16.90625 3.761719 17.25 3.761719 C 17.402344 3.761719 17.554688 3.722656 17.667969 3.570312 L 18.390625 3.570312 C 18.542969 3.722656 18.65625 3.761719 18.808594 3.761719 C 18.921875 3.761719 19.074219 3.722656 19.226562 3.648438 C 19.378906 3.535156 19.53125 3.535156 19.644531 3.535156 C 19.910156 3.535156 20.175781 3.535156 20.441406 3.535156 C 20.554688 3.535156 20.707031 3.535156 20.820312 3.535156 C 20.859375 3.535156 20.859375 3.535156 20.898438 3.535156 C 21.164062 3.535156 21.429688 3.382812 21.65625 3.34375 C 21.769531 3.304688 21.886719 3.152344 21.921875 2.964844 C 21.960938 2.851562 21.847656 2.773438 21.65625 2.660156 C 21.277344 2.546875 20.898438 2.46875 20.515625 2.46875 C 20.480469 2.507812 20.402344 2.546875 20.328125 2.546875 C 20.289062 2.546875 20.214844 2.507812 20.175781 2.46875 C 19.949219 2.316406 19.679688 2.28125 19.453125 2.28125 C 19.378906 2.28125 19.300781 2.28125 19.226562 2.28125 C 17.894531 2.28125 16.527344 2.28125 15.199219 2.28125 C 14.78125 2.28125 14.363281 2.46875 13.980469 2.46875 C 13.5625 2.546875 13.144531 2.546875 12.726562 2.546875 C 12.652344 2.546875 12.578125 2.582031 12.5 2.621094 C 12.042969 2.734375 11.589844 2.925781 11.132812 2.925781 C 11.09375 2.925781 11.054688 2.925781 11.019531 2.925781 C 10.5625 2.925781 10.105469 3.152344 9.613281 3.152344 C 9.613281 3.152344 9.574219 3.152344 9.535156 3.152344 C 9.382812 3.34375 9.195312 3.34375 8.96875 3.34375 C 8.699219 3.34375 8.472656 3.382812 8.207031 3.496094 C 7.902344 3.570312 7.636719 3.648438 7.332031 3.722656 C 5.964844 3.953125 3.457031 5.015625 2.355469 5.925781 C 2.28125 6.003906 2.203125 6.042969 2.128906 6.042969 C 2.089844 6.042969 2.050781 6.042969 2.015625 6.003906 C 1.976562 5.851562 2.050781 5.660156 2.089844 5.507812 C 2.203125 5.207031 2.316406 4.976562 2.355469 4.671875 C 2.433594 4.371094 2.734375 4.292969 2.660156 3.914062 C 2.8125 3.304688 3 2.660156 3.265625 2.128906 C 3.496094 1.597656 3.570312 0.910156 3.835938 0.417969 C 3.953125 0.226562 3.988281 0 4.066406 -0.265625 C 3.914062 -0.492188 4.101562 -0.644531 4.140625 -0.835938 C 4.253906 -1.253906 4.558594 -1.558594 4.671875 -1.976562 C 4.789062 -2.433594 4.976562 -2.8125 5.167969 -3.230469 C 5.242188 -3.417969 5.242188 -3.609375 5.167969 -3.800781 C 5.089844 -3.914062 5.128906 -4.101562 5.242188 -4.140625 C 5.355469 -4.179688 5.472656 -4.292969 5.507812 -4.484375 C 5.546875 -4.976562 5.773438 -5.355469 5.964844 -5.773438 C 6.042969 -5.964844 6.15625 -6.191406 6.117188 -6.496094 C 6.117188 -6.648438 6.15625 -6.726562 6.230469 -6.800781 C 6.460938 -6.878906 6.34375 -7.371094 6.535156 -7.5625 C 6.761719 -7.75 6.6875 -8.207031 6.839844 -8.472656 C 6.878906 -8.585938 6.878906 -8.816406 6.953125 -8.96875 C 7.21875 -9.5 7.445312 -10.070312 7.445312 -10.753906 C 7.445312 -10.867188 7.523438 -10.90625 7.523438 -11.019531 C 7.636719 -11.664062 7.941406 -12.234375 8.167969 -12.765625 C 8.207031 -12.878906 8.28125 -13.03125 8.207031 -13.183594 C 8.167969 -13.296875 8.207031 -13.375 8.246094 -13.527344 C 8.359375 -13.753906 8.511719 -14.058594 8.664062 -14.324219 C 8.699219 -14.4375 8.738281 -14.515625 8.738281 -14.589844 C 8.585938 -14.855469 8.777344 -14.894531 8.851562 -15.046875 C 8.929688 -15.234375 9.042969 -15.503906 9.042969 -15.730469 C 9.042969 -16.070312 9.15625 -16.300781 9.234375 -16.605469 C 9.347656 -16.945312 9.460938 -17.210938 9.574219 -17.515625 C 9.726562 -17.894531 9.765625 -18.277344 9.839844 -18.695312 C 9.917969 -19.074219 10.183594 -19.339844 10.296875 -19.71875 C 10.449219 -20.402344 10.636719 -21.011719 10.789062 -21.695312 C 10.941406 -22.417969 11.132812 -23.140625 11.398438 -23.859375 C 11.625 -24.46875 11.816406 -25.152344 11.96875 -25.875 C 12.195312 -26.863281 12.195312 -27.773438 11.511719 -28.570312 C 11.472656 -28.570312 11.4375 -28.609375 11.398438 -28.648438 C 11.285156 -28.800781 11.132812 -28.875 11.019531 -28.875 C 10.867188 -28.875 10.714844 -28.761719 10.601562 -28.570312 C 10.523438 -28.457031 10.523438 -28.269531 10.488281 -28.117188 C 10.371094 -27.546875 10.257812 -26.9375 10.105469 -26.332031 C 9.878906 -25.230469 9.574219 -24.164062 9.347656 -23.101562 C 9.117188 -21.734375 8.777344 -20.402344 8.398438 -19.074219 C 8.167969 -18.425781 7.980469 -17.742188 7.789062 -17.023438 C 7.484375 -15.769531 7.179688 -14.515625 6.726562 -13.375 C 6.648438 -13.183594 6.609375 -12.957031 6.535156 -12.691406 C 6.230469 -11.550781 5.925781 -10.449219 5.546875 -9.269531 C 5.128906 -7.902344 4.636719 -6.609375 4.21875 -5.167969 C 4.066406 -4.671875 3.914062 -4.253906 3.722656 -3.761719 C 3.609375 -3.34375 3.496094 -2.886719 3.304688 -2.46875 C 3.078125 -2.089844 3 -1.558594 2.851562 -1.101562 C 2.46875 -0.113281 2.089844 0.835938 1.746094 1.824219 C 1.558594 2.28125 1.40625 2.925781 1.140625 3.34375 C 1.101562 3.457031 1.0625 3.570312 1.027344 3.722656 C 0.910156 4.21875 0.875 4.671875 0.570312 4.976562 C 0.53125 5.089844 0.492188 5.167969 0.492188 5.207031 C 0.378906 5.738281 0.226562 6.308594 0.0742188 6.800781 C -0.0390625 7.179688 -0.0390625 7.5625 0.191406 7.863281 C 0.34375 8.054688 0.417969 8.28125 0.53125 8.472656 C 0.722656 8.777344 0.875 8.890625 1.027344 8.890625 C 1.101562 8.890625 1.214844 8.851562 1.367188 8.738281 C 1.445312 8.699219 1.519531 8.625 1.632812 8.550781 C 2.660156 7.828125 3.609375 7.105469 4.671875 6.535156 C 4.9375 6.421875 5.207031 6.117188 5.507812 6.078125 C 6.117188 6.003906 6.6875 5.625 7.296875 5.472656 C 7.828125 5.320312 8.28125 4.976562 8.777344 4.976562 C 8.851562 4.976562 8.890625 4.976562 8.929688 4.976562 C 9.082031 4.824219 9.195312 4.824219 9.347656 4.824219 C 9.382812 4.789062 9.460938 4.824219 9.5 4.824219 C 9.574219 4.824219 9.6875 4.789062 9.765625 4.75 C 10.070312 4.636719 10.335938 4.597656 10.636719 4.597656 C 10.789062 4.558594 10.789062 4.371094 10.789062 4.140625 Z M 6.535156 -9.535156 C 6.535156 -9.421875 6.535156 -9.382812 6.496094 -9.234375 C 6.460938 -9.269531 6.421875 -9.347656 6.460938 -9.347656 C 6.460938 -9.421875 6.535156 -9.5 6.574219 -9.535156 C 6.574219 -9.726562 6.574219 -9.878906 6.726562 -9.917969 C 6.726562 -10.105469 6.6875 -10.296875 6.839844 -10.335938 C 6.878906 -10.523438 6.839844 -10.753906 6.992188 -10.789062 C 6.992188 -11.019531 7.027344 -11.171875 7.179688 -11.324219 C 7.179688 -11.359375 7.21875 -11.359375 7.21875 -11.324219 C 7.257812 -11.324219 7.257812 -11.207031 7.257812 -11.207031 C 7.257812 -11.019531 7.144531 -10.867188 6.992188 -10.789062 C 6.992188 -10.636719 7.027344 -10.449219 6.839844 -10.335938 C 6.839844 -10.21875 6.878906 -10.070312 6.6875 -9.953125 C 6.6875 -9.800781 6.726562 -9.613281 6.535156 -9.535156 Z M 8.890625 -17.210938 C 8.890625 -17.363281 8.929688 -17.402344 8.929688 -17.515625 C 8.96875 -17.515625 9.003906 -17.441406 9.003906 -17.441406 C 9.003906 -17.363281 8.96875 -17.210938 8.890625 -17.210938 C 8.890625 -17.136719 8.890625 -17.058594 8.851562 -16.984375 C 8.816406 -16.984375 8.777344 -17.023438 8.777344 -17.058594 C 8.777344 -17.136719 8.816406 -17.171875 8.890625 -17.210938 Z M 6.6875 -11.816406 C 6.6875 -11.777344 6.648438 -11.742188 6.648438 -11.664062 C 6.574219 -11.816406 6.6875 -11.777344 6.726562 -11.816406 C 6.726562 -11.96875 6.6875 -12.234375 6.839844 -12.273438 C 6.839844 -12.425781 6.839844 -12.613281 6.992188 -12.652344 C 7.027344 -12.726562 7.066406 -12.957031 7.066406 -13.03125 C 7.066406 -12.957031 7.144531 -12.878906 7.105469 -12.84375 C 7.105469 -12.804688 7.027344 -12.765625 6.992188 -12.691406 C 6.992188 -12.460938 6.992188 -12.308594 6.839844 -12.273438 C 6.839844 -12.082031 6.878906 -11.890625 6.6875 -11.816406 Z M 6.421875 -11.019531 C 6.421875 -11.054688 6.460938 -11.054688 6.460938 -11.132812 C 6.535156 -11.019531 6.460938 -11.019531 6.421875 -11.019531 C 6.421875 -10.941406 6.382812 -10.675781 6.34375 -10.636719 C 6.34375 -10.675781 6.308594 -10.789062 6.308594 -10.789062 C 6.34375 -10.867188 6.382812 -10.90625 6.421875 -11.019531 Z M 5.546875 -7.902344 C 5.507812 -7.75 5.472656 -7.714844 5.394531 -7.675781 C 5.394531 -7.523438 5.433594 -7.332031 5.242188 -7.257812 C 5.242188 -7.179688 5.242188 -7.066406 5.207031 -7.027344 C 5.207031 -6.953125 5.207031 -6.953125 5.167969 -6.878906 C 5.167969 -6.953125 5.128906 -7.066406 5.128906 -7.066406 C 5.167969 -7.144531 5.207031 -7.179688 5.242188 -7.257812 C 5.242188 -7.410156 5.242188 -7.597656 5.394531 -7.675781 C 5.433594 -7.75 5.472656 -7.902344 5.546875 -7.902344 C 5.546875 -7.980469 5.546875 -8.054688 5.585938 -8.132812 C 5.585938 -8.207031 5.585938 -8.207031 5.625 -8.207031 C 5.625 -8.207031 5.660156 -8.09375 5.660156 -8.09375 C 5.625 -7.980469 5.585938 -7.941406 5.546875 -7.902344 Z M 5.8125 -8.96875 C 5.8125 -8.851562 5.8125 -8.738281 5.8125 -8.625 C 5.738281 -8.625 5.699219 -8.664062 5.699219 -8.738281 C 5.738281 -8.816406 5.8125 -8.851562 5.851562 -8.890625 C 5.851562 -9.042969 5.8125 -9.269531 5.964844 -9.347656 C 5.964844 -9.726562 6.042969 -9.953125 6.230469 -10.296875 C 6.308594 -9.878906 6.191406 -9.613281 5.964844 -9.347656 C 5.964844 -9.195312 5.964844 -9.003906 5.8125 -8.96875 Z M 13.980469 3.535156 C 13.980469 3.457031 14.019531 3.382812 14.097656 3.382812 C 14.132812 3.382812 14.171875 3.457031 14.210938 3.457031 C 14.171875 3.496094 14.171875 3.496094 14.132812 3.496094 C 14.097656 3.535156 14.019531 3.535156 13.945312 3.535156 C 13.945312 3.648438 13.90625 3.722656 13.832031 3.761719 C 13.753906 3.761719 13.714844 3.761719 13.640625 3.761719 C 13.5625 3.761719 13.488281 3.761719 13.414062 3.648438 C 13.527344 3.535156 13.679688 3.535156 13.792969 3.535156 C 13.867188 3.535156 13.90625 3.535156 13.980469 3.535156 Z M 8.625 -16.222656 C 8.625 -16.261719 8.625 -16.375 8.625 -16.488281 C 8.699219 -16.488281 8.738281 -16.453125 8.738281 -16.375 C 8.699219 -16.300781 8.625 -16.261719 8.585938 -16.222656 C 8.585938 -15.84375 8.625 -15.503906 8.320312 -15.386719 C 8.359375 -15.007812 8.246094 -14.667969 8.054688 -14.398438 C 8.015625 -14.816406 8.09375 -15.160156 8.320312 -15.351562 C 8.359375 -15.691406 8.398438 -15.996094 8.625 -16.222656 Z M 2.203125 2.28125 C 2.203125 2.433594 2.203125 2.46875 2.203125 2.582031 C 2.128906 2.582031 2.089844 2.546875 2.089844 2.46875 C 2.128906 2.433594 2.164062 2.355469 2.242188 2.28125 C 2.242188 2.128906 2.242188 2.015625 2.242188 1.824219 C 2.28125 1.710938 2.355469 1.710938 2.433594 1.746094 C 2.507812 1.824219 2.507812 1.898438 2.46875 2.015625 C 2.433594 2.128906 2.355469 2.242188 2.203125 2.28125 Z M 4.371094 -4.332031 C 4.371094 -4.445312 4.445312 -4.902344 4.597656 -4.902344 C 4.636719 -4.902344 4.671875 -4.710938 4.636719 -4.636719 C 4.558594 -4.519531 4.484375 -4.332031 4.371094 -4.332031 C 4.371094 -4.140625 4.332031 -3.953125 4.332031 -3.761719 C 4.253906 -3.265625 4.027344 -2.964844 3.988281 -2.46875 C 3.953125 -2.089844 3.609375 -1.863281 3.496094 -1.558594 C 3.417969 -1.597656 3.417969 -1.597656 3.417969 -1.632812 C 3.417969 -1.746094 3.457031 -1.785156 3.496094 -1.9375 C 3.722656 -2.660156 3.953125 -3.382812 4.21875 -4.140625 C 4.253906 -4.253906 4.332031 -4.292969 4.371094 -4.332031 Z M 9.234375 -18.503906 C 9.234375 -18.65625 9.195312 -18.769531 9.195312 -18.84375 C 9.269531 -19.148438 9.308594 -19.414062 9.382812 -19.679688 C 9.421875 -19.757812 9.535156 -19.871094 9.535156 -19.871094 C 9.613281 -19.757812 9.574219 -19.679688 9.574219 -19.566406 C 9.421875 -19.226562 9.460938 -18.84375 9.234375 -18.503906 Z M 7.523438 -12.652344 C 7.636719 -12.308594 7.5625 -12.160156 7.445312 -11.929688 C 7.410156 -11.929688 7.410156 -11.929688 7.371094 -11.890625 C 7.371094 -11.929688 7.296875 -12.042969 7.332031 -12.042969 C 7.371094 -12.273438 7.445312 -12.425781 7.523438 -12.652344 Z M 4.789062 -5.699219 C 4.75 -5.699219 4.75 -5.699219 4.710938 -5.699219 C 4.710938 -5.699219 4.671875 -5.773438 4.671875 -5.773438 C 4.75 -5.964844 4.824219 -6.117188 4.863281 -6.308594 C 4.9375 -6.269531 4.9375 -6.269531 4.9375 -6.191406 C 4.9375 -5.964844 4.902344 -5.8125 4.789062 -5.699219 Z M 7.828125 -13.335938 C 7.675781 -13.601562 7.75 -13.867188 7.863281 -13.980469 C 7.902344 -13.980469 7.902344 -14.058594 7.941406 -14.058594 C 7.941406 -13.980469 8.015625 -13.945312 7.980469 -13.90625 C 7.941406 -13.714844 7.863281 -13.527344 7.828125 -13.335938 Z M 3.039062 0.191406 C 2.964844 0.191406 2.925781 0.191406 2.886719 0.0742188 C 2.925781 0.0390625 3 0.0390625 3.039062 0.0390625 C 3.078125 0.0390625 3.152344 0.0390625 3.152344 0.0742188 C 3.152344 0.191406 3.078125 0.191406 3.039062 0.191406 Z M 3.265625 -0.457031 C 3.230469 -0.457031 3.191406 -0.457031 3.152344 -0.457031 C 3.117188 -0.492188 3.117188 -0.722656 3.152344 -0.722656 C 3.191406 -0.722656 3.230469 -0.683594 3.265625 -0.683594 C 3.304688 -0.644531 3.304688 -0.53125 3.34375 -0.492188 C 3.34375 -0.457031 3.304688 -0.457031 3.265625 -0.457031 Z M 1.746094 4.066406 C 1.671875 4.140625 1.632812 4.253906 1.597656 4.292969 C 1.597656 4.292969 1.519531 4.253906 1.519531 4.21875 C 1.519531 4.066406 1.558594 3.988281 1.632812 3.988281 C 1.671875 3.988281 1.671875 4.027344 1.746094 4.066406 Z M 2.699219 0.910156 C 2.699219 0.988281 2.660156 1.140625 2.621094 1.179688 C 2.582031 1.214844 2.546875 1.179688 2.546875 1.140625 C 2.546875 1.027344 2.546875 0.988281 2.546875 0.988281 C 2.582031 0.910156 2.621094 0.835938 2.699219 0.910156 Z M 16.90625 3.382812 C 16.90625 3.34375 16.90625 3.304688 16.984375 3.191406 C 17.023438 3.304688 17.023438 3.496094 16.945312 3.496094 C 16.945312 3.457031 16.90625 3.457031 16.90625 3.382812 Z M 11.703125 3.875 C 11.703125 3.835938 11.742188 3.761719 11.777344 3.835938 C 11.816406 3.835938 11.816406 3.875 11.816406 3.914062 C 11.777344 3.914062 11.742188 3.914062 11.703125 3.875 Z M 3.457031 -1.179688 C 3.457031 -1.101562 3.417969 -1.0625 3.382812 -1.0625 C 3.382812 -1.0625 3.34375 -1.101562 3.34375 -1.214844 C 3.382812 -1.214844 3.417969 -1.179688 3.457031 -1.179688 Z M 9.652344 -20.289062 C 9.652344 -20.328125 9.652344 -20.402344 9.726562 -20.441406 C 9.765625 -20.402344 9.726562 -20.214844 9.6875 -20.214844 C 9.6875 -20.214844 9.652344 -20.289062 9.652344 -20.289062 Z M 10.03125 -21.46875 C 10.03125 -21.390625 9.992188 -21.351562 9.992188 -21.238281 C 9.953125 -21.316406 9.953125 -21.316406 9.953125 -21.351562 C 9.953125 -21.390625 9.953125 -21.46875 9.992188 -21.542969 C 9.992188 -21.542969 10.03125 -21.46875 10.03125 -21.46875 Z M 7.789062 -15.691406 L 7.789062 -15.730469 L 7.828125 -15.691406 Z M 7.332031 -14.058594 L 7.371094 -14.058594 L 7.371094 -13.980469 Z M 7.675781 -15.046875 L 7.675781 -15.007812 L 7.636719 -15.046875 Z M 8.246094 -17.171875 L 8.246094 -17.136719 L 8.207031 -17.136719 Z M 11.4375 3.875 L 11.398438 3.875 L 11.398438 3.835938 Z M 6.308594 -8.851562 L 6.382812 -8.851562 Z M 7.675781 -12.957031 L 7.636719 -12.957031 L 7.675781 -13.03125 Z M 2.886719 0.570312 L 2.851562 0.570312 L 2.886719 0.492188 Z M 15.652344 3.496094 L 15.617188 3.457031 L 15.652344 3.382812 Z M 1.824219 3.496094 L 1.863281 3.382812 L 1.898438 3.457031 Z M 18.84375 3 L 18.808594 3.078125 L 18.769531 3 Z M 18.84375 3 "/></g></g></g><g fill="#e6d8ce" fill-opacity="1"><g transform="translate(190.392183, 192.749987)"><g><path d="M 2.886719 -10.070312 C 2.773438 -9.726562 2.394531 -9.613281 2.28125 -9.269531 C 2.28125 -9.234375 2.203125 -9.234375 2.164062 -9.195312 C 2.164062 -9.195312 2.128906 -9.195312 2.089844 -9.15625 C 1.898438 -9.15625 1.863281 -9.042969 1.863281 -8.890625 C 1.863281 -8.664062 1.785156 -8.511719 1.597656 -8.433594 C 1.40625 -8.398438 1.292969 -8.246094 1.214844 -8.132812 C 1.179688 -8.054688 1.179688 -7.941406 1.140625 -7.863281 C 1.101562 -7.828125 1.0625 -7.789062 1.027344 -7.789062 C 1.0625 -7.75 1.101562 -7.75 1.140625 -7.714844 C 1.027344 -7.445312 0.949219 -7.179688 0.835938 -6.914062 C 0.492188 -6.308594 0.378906 -5.585938 0 -4.976562 L 0 -4.9375 C -0.0742188 -4.671875 -0.113281 -4.445312 -0.191406 -4.21875 C -0.226562 -3.988281 -0.265625 -3.722656 -0.34375 -3.535156 C -0.457031 -3.265625 -0.378906 -3.039062 -0.417969 -2.8125 C -0.492188 -2.507812 -0.53125 -2.128906 -0.417969 -1.824219 C -0.304688 -1.367188 -0.265625 -0.875 0.0742188 -0.492188 C 0.265625 0.0742188 1.214844 1.027344 1.863281 1.027344 C 2.089844 1.027344 2.316406 1.0625 2.546875 1.0625 C 2.886719 1.0625 3.230469 1.027344 3.570312 0.796875 C 3.683594 0.722656 3.835938 0.683594 3.988281 0.644531 C 4.445312 0.492188 4.902344 0.265625 5.320312 -0.0390625 C 5.773438 -0.378906 6.269531 -0.683594 6.726562 -1.027344 C 7.105469 -1.328125 7.5625 -1.558594 7.828125 -1.9375 C 8.015625 -2.164062 8.207031 -2.316406 8.398438 -2.507812 L 8.851562 -2.964844 C 9.003906 -3.117188 9.117188 -3.265625 9.082031 -3.457031 C 9.082031 -3.722656 9.460938 -3.683594 9.460938 -3.914062 L 9.460938 -3.953125 C 9.613281 -4.066406 9.726562 -4.21875 9.878906 -4.332031 C 10.257812 -4.671875 10.5625 -5.128906 10.980469 -5.433594 C 11.054688 -5.507812 11.054688 -5.625 11.132812 -5.699219 C 11.855469 -6.609375 12.425781 -8.054688 12.273438 -8.09375 C 12.273438 -8.132812 12.273438 -8.132812 12.234375 -8.132812 L 12.234375 -8.09375 C 12.195312 -8.054688 12.160156 -8.015625 12.121094 -7.980469 L 12.082031 -7.980469 L 12.082031 -7.941406 C 12.007812 -7.828125 11.929688 -7.714844 11.816406 -7.5625 C 11.777344 -7.484375 11.742188 -7.445312 11.703125 -7.371094 L 11.703125 -7.257812 C 11.589844 -7.144531 11.4375 -6.953125 11.324219 -6.800781 C 10.941406 -6.308594 10.601562 -5.890625 10.21875 -5.394531 C 9.953125 -5.242188 9.613281 -4.902344 9.460938 -4.636719 C 9.347656 -4.445312 9.195312 -4.292969 9.003906 -4.179688 C 8.585938 -3.875 8.246094 -3.457031 7.828125 -3.117188 C 7.371094 -2.507812 5.890625 -1.671875 5.242188 -1.328125 C 5.242188 -1.292969 5.207031 -1.328125 5.167969 -1.328125 C 5.128906 -1.367188 5.128906 -1.40625 5.167969 -1.445312 C 5.242188 -1.519531 5.28125 -1.597656 5.320312 -1.710938 C 5.355469 -1.710938 5.355469 -1.710938 5.394531 -1.746094 C 5.433594 -1.746094 5.507812 -1.710938 5.585938 -1.746094 C 5.773438 -1.863281 5.964844 -2.015625 6.15625 -2.128906 C 6.191406 -2.164062 6.191406 -2.242188 6.230469 -2.316406 C 6.496094 -2.28125 6.609375 -2.46875 6.761719 -2.621094 L 6.761719 -2.699219 C 6.726562 -2.699219 6.648438 -2.734375 6.648438 -2.699219 C 6.496094 -2.582031 6.308594 -2.507812 6.230469 -2.316406 C 5.851562 -2.242188 5.585938 -2.089844 5.394531 -1.746094 C 5.242188 -1.710938 5.167969 -1.710938 5.089844 -1.671875 C 4.636719 -1.445312 4.140625 -1.179688 3.683594 -0.949219 C 3.417969 -0.835938 3.152344 -0.683594 2.851562 -0.644531 C 2.433594 -0.53125 2.050781 -0.417969 1.597656 -0.417969 C 0.910156 -0.570312 0.53125 -1.292969 0.53125 -1.976562 C 0.570312 -2.164062 0.570312 -2.316406 0.53125 -2.507812 C 0.492188 -3.382812 0.835938 -4.101562 1.214844 -4.902344 C 1.40625 -4.484375 1.746094 -4.21875 2.203125 -4.21875 C 2.886719 -4.445312 3.609375 -4.636719 4.253906 -5.015625 C 4.789062 -5.355469 5.320312 -5.625 5.851562 -5.890625 C 6.078125 -6.042969 6.269531 -6.15625 6.382812 -6.382812 C 6.496094 -6.574219 6.648438 -6.726562 6.839844 -6.839844 C 7.332031 -7.179688 8.28125 -8.28125 8.28125 -8.929688 C 8.359375 -9.382812 8.359375 -9.878906 8.433594 -10.335938 C 8.472656 -10.867188 8.472656 -11.4375 8.28125 -11.96875 L 8.167969 -12.308594 C 7.75 -12.804688 7.371094 -13.03125 6.726562 -13.03125 C 6.574219 -13.03125 6.382812 -13.03125 6.15625 -12.957031 C 5.625 -12.804688 5.207031 -12.425781 4.75 -12.121094 C 4.484375 -11.929688 4.253906 -11.703125 4.027344 -11.511719 C 3.914062 -11.171875 3.570312 -11.09375 3.34375 -10.867188 C 3.265625 -10.753906 3.191406 -10.636719 3.152344 -10.488281 C 3.117188 -10.335938 3.039062 -10.21875 2.886719 -10.183594 Z M 7.75 -11.96875 C 7.863281 -11.742188 8.015625 -11.511719 7.980469 -11.246094 L 7.980469 -10.867188 C 7.980469 -8.015625 4.671875 -6.078125 2.203125 -5.320312 C 1.976562 -5.28125 1.746094 -5.242188 1.519531 -5.242188 C 1.328125 -5.242188 1.253906 -5.320312 1.40625 -5.625 C 1.597656 -5.925781 1.632812 -6.308594 1.898438 -6.535156 C 2.015625 -6.648438 2.015625 -6.839844 2.089844 -6.953125 C 2.242188 -7.105469 2.28125 -7.371094 2.394531 -7.5625 C 2.699219 -7.980469 3.039062 -8.398438 3.34375 -8.777344 C 3.417969 -8.890625 3.496094 -8.96875 3.609375 -9.042969 C 4.027344 -9.347656 4.40625 -9.726562 4.789062 -10.105469 C 5.089844 -10.410156 5.433594 -10.753906 5.8125 -11.019531 C 6.308594 -11.324219 6.761719 -11.777344 7.257812 -12.082031 C 7.332031 -12.121094 7.410156 -12.160156 7.484375 -12.160156 C 7.597656 -12.160156 7.675781 -12.121094 7.75 -11.96875 Z M 1.292969 -7.863281 C 1.292969 -7.75 1.214844 -7.714844 1.140625 -7.714844 L 1.140625 -7.863281 Z M 1.480469 -8.015625 C 1.480469 -8.054688 1.519531 -8.09375 1.558594 -8.132812 C 1.558594 -8.132812 1.632812 -8.09375 1.671875 -8.09375 C 1.632812 -8.054688 1.632812 -8.054688 1.632812 -8.015625 Z M 11.664062 -7.105469 C 11.625 -7.105469 11.625 -7.144531 11.625 -7.144531 C 11.664062 -7.144531 11.664062 -7.105469 11.664062 -7.105469 Z M 2.050781 -9.382812 L 2.089844 -9.347656 L 2.089844 -9.382812 Z M 2.050781 -8.816406 L 2.089844 -8.816406 L 2.089844 -8.777344 Z M 11.703125 -7.21875 C 11.742188 -7.21875 11.777344 -7.179688 11.777344 -7.179688 C 11.742188 -7.179688 11.742188 -7.21875 11.703125 -7.21875 Z M 1.480469 -8.015625 C 1.445312 -8.015625 1.445312 -7.980469 1.445312 -7.980469 C 1.445312 -7.980469 1.445312 -7.980469 1.445312 -8.015625 Z M 1.480469 -8.015625 "/></g></g></g><g fill="#e6d8ce" fill-opacity="1"><g transform="translate(201.485913, 192.749987)"><g><path d="M 10.371094 -5.28125 C 10.636719 -5.585938 10.789062 -5.925781 10.980469 -6.308594 C 11.171875 -6.382812 11.207031 -6.648438 11.324219 -6.800781 C 11.324219 -6.839844 11.359375 -6.839844 11.398438 -6.839844 C 11.4375 -6.839844 11.511719 -6.800781 11.550781 -6.761719 C 11.664062 -6.648438 11.703125 -6.535156 11.664062 -6.421875 C 11.625 -6.382812 11.589844 -6.382812 11.550781 -6.421875 C 11.511719 -6.460938 11.472656 -6.496094 11.4375 -6.574219 C 11.398438 -6.460938 11.398438 -6.34375 11.359375 -6.230469 C 11.285156 -6.117188 11.324219 -5.964844 11.398438 -5.851562 C 11.4375 -5.8125 11.359375 -5.773438 11.324219 -5.738281 C 11.207031 -5.699219 11.207031 -5.625 11.285156 -5.507812 C 11.398438 -5.355469 11.398438 -5.207031 11.246094 -5.089844 C 10.980469 -4.9375 10.867188 -4.710938 10.941406 -4.40625 C 10.980469 -4.179688 10.980469 -3.988281 10.90625 -3.800781 C 10.867188 -3.722656 10.90625 -3.570312 10.980469 -3.535156 C 11.09375 -3.34375 11.054688 -3.230469 10.941406 -3.078125 C 10.828125 -2.925781 10.867188 -2.925781 11.019531 -2.734375 C 11.09375 -2.699219 11.171875 -2.621094 11.132812 -2.582031 C 10.980469 -2.28125 11.171875 -1.976562 11.054688 -1.671875 C 10.980469 -1.445312 11.019531 -1.140625 11.285156 -0.949219 C 11.4375 -0.835938 11.472656 -0.683594 11.472656 -0.53125 C 11.472656 -0.304688 11.625 -0.152344 11.816406 0 C 12.082031 0.265625 12.460938 0.457031 12.691406 0.761719 C 12.765625 0.835938 12.84375 0.875 12.957031 0.875 C 12.996094 0.875 13.070312 0.835938 13.144531 0.835938 C 13.488281 0.796875 13.792969 0.761719 14.019531 0.570312 C 14.363281 0.265625 14.703125 0.0742188 15.199219 -0.113281 C 15.273438 -0.191406 15.199219 -0.113281 15.199219 -0.191406 C 15.199219 -0.226562 15.121094 -0.304688 15.085938 -0.304688 C 14.855469 -0.191406 14.589844 -0.0742188 14.363281 0.0742188 C 14.019531 0.226562 13.679688 0.265625 13.296875 0.265625 C 13.144531 0.226562 13.03125 0.191406 12.957031 0.0742188 C 12.726562 -0.304688 12.652344 -0.761719 12.5 -1.179688 C 12.578125 -1.445312 12.5 -1.710938 12.460938 -2.015625 C 12.386719 -2.316406 12.5 -2.621094 12.460938 -2.925781 C 12.425781 -3.230469 12.539062 -3.496094 12.578125 -3.800781 C 12.578125 -4.101562 12.613281 -4.40625 12.691406 -4.671875 C 12.84375 -5.28125 13.144531 -5.8125 13.183594 -6.460938 C 13.335938 -6.726562 13.414062 -6.992188 13.488281 -7.296875 C 13.5625 -7.675781 13.640625 -8.054688 13.753906 -8.398438 C 13.980469 -9.15625 14.25 -9.917969 14.476562 -10.675781 C 14.742188 -11.359375 14.933594 -12.082031 15.046875 -12.804688 C 15.085938 -12.878906 15.085938 -12.957031 15.046875 -12.996094 C 14.855469 -13.414062 14.398438 -13.753906 13.980469 -13.792969 C 13.714844 -13.792969 13.601562 -13.792969 13.375 -13.640625 C 13.222656 -13.527344 13.261719 -13.375 13.222656 -13.261719 C 13.183594 -13.144531 13.183594 -13.03125 13.144531 -12.917969 C 12.957031 -12.121094 12.765625 -11.324219 12.308594 -10.636719 C 12.234375 -10.5625 12.195312 -10.488281 12.160156 -10.410156 C 12.007812 -10.070312 11.816406 -9.765625 11.855469 -9.382812 C 11.890625 -9.308594 11.855469 -9.234375 11.777344 -9.195312 C 11.625 -9.15625 11.589844 -9.042969 11.511719 -8.929688 C 11.171875 -8.472656 11.054688 -7.902344 10.675781 -7.484375 C 10.410156 -6.878906 10.070312 -6.308594 9.6875 -5.773438 C 9.117188 -4.710938 8.433594 -3.683594 7.597656 -2.8125 C 7.484375 -2.660156 6.878906 -2.164062 6.6875 -2.164062 C 6.574219 -2.164062 6.421875 -2.203125 6.382812 -2.316406 C 6.15625 -2.699219 5.925781 -3.078125 5.851562 -3.496094 C 5.773438 -4.101562 5.625 -4.710938 5.738281 -5.320312 C 5.773438 -5.585938 5.773438 -5.890625 5.773438 -6.15625 C 5.773438 -6.460938 5.890625 -6.726562 5.8125 -7.066406 C 5.773438 -7.371094 6.078125 -7.523438 6.042969 -7.828125 C 6.042969 -7.941406 6.117188 -8.015625 6.078125 -8.09375 C 6.078125 -8.09375 6.308594 -9.308594 6.34375 -9.382812 C 6.382812 -9.6875 6.460938 -9.992188 6.535156 -10.335938 C 6.6875 -10.789062 6.609375 -11.285156 6.914062 -11.703125 L 6.914062 -11.816406 C 6.878906 -12.042969 6.953125 -12.234375 6.992188 -12.460938 C 7.105469 -12.878906 7.066406 -13.261719 6.914062 -13.679688 C 6.761719 -13.792969 6.609375 -13.867188 6.496094 -13.945312 C 6.34375 -14.019531 6.191406 -14.058594 6.078125 -14.058594 C 5.890625 -14.058594 5.699219 -13.980469 5.585938 -13.832031 C 5.128906 -13.03125 4.789062 -12.273438 4.445312 -11.4375 C 4.101562 -10.828125 3.800781 -10.257812 3.535156 -9.613281 C 3.417969 -9.421875 3.34375 -9.234375 3.230469 -9.003906 C 3.078125 -8.585938 2.773438 -8.246094 2.699219 -7.789062 C 2.699219 -7.636719 2.28125 -6.761719 2.050781 -6.648438 C 1.976562 -6.726562 2.015625 -6.800781 2.015625 -6.839844 C 2.089844 -7.144531 2.242188 -7.445312 2.242188 -7.789062 C 2.28125 -8.09375 2.355469 -8.398438 2.433594 -8.738281 C 2.507812 -9.042969 2.546875 -9.347656 2.582031 -9.6875 C 2.621094 -9.953125 2.660156 -10.21875 2.734375 -10.488281 C 2.886719 -10.90625 2.925781 -11.324219 3.039062 -11.742188 C 3.152344 -12.273438 3.152344 -12.804688 3.230469 -13.335938 L 3.230469 -13.527344 C 3.117188 -13.714844 3.039062 -13.90625 2.925781 -14.058594 C 2.773438 -14.285156 2.582031 -14.4375 2.355469 -14.4375 C 2.050781 -14.4375 1.710938 -14.210938 1.671875 -13.90625 C 1.597656 -13.5625 1.480469 -13.222656 1.445312 -12.84375 C 1.292969 -12.082031 1.214844 -11.359375 1.0625 -10.601562 C 0.988281 -10.183594 0.910156 -9.800781 1.027344 -9.347656 C 1.027344 -9.269531 1.0625 -9.15625 0.988281 -9.082031 C 0.761719 -8.777344 0.644531 -8.398438 0.722656 -7.980469 L 0.722656 -7.902344 C 0.378906 -7.636719 -0.609375 -3.835938 -0.683594 -3.304688 C -0.835938 -3.230469 -0.835938 -3.039062 -0.875 -2.886719 C -1.140625 -2.355469 -1.253906 -1.710938 -1.40625 -1.140625 C -1.519531 -0.796875 -1.480469 -0.644531 -1.179688 -0.457031 C -0.988281 -0.34375 -0.875 -0.226562 -0.761719 -0.0390625 L -0.492188 0.226562 C -0.417969 0.265625 -0.34375 0.265625 -0.265625 0.265625 C -0.152344 0.265625 -0.0742188 0.265625 0 0.191406 C 0 0.152344 0.0390625 0.113281 0.0742188 0.0742188 C 0.191406 -0.265625 0.304688 -0.609375 0.417969 -0.988281 C 0.492188 -1.367188 0.722656 -1.671875 0.722656 -2.089844 C 0.761719 -2.128906 0.796875 -2.203125 0.835938 -2.242188 C 1.101562 -2.660156 1.367188 -3 1.558594 -3.457031 C 1.671875 -3.722656 1.824219 -3.953125 1.976562 -4.179688 C 2.164062 -4.484375 2.394531 -4.824219 2.507812 -5.167969 C 2.699219 -5.738281 2.925781 -6.308594 3.191406 -6.878906 C 3.230469 -6.878906 3.230469 -6.953125 3.230469 -6.992188 C 3 -7.257812 3.191406 -7.371094 3.382812 -7.445312 C 3.457031 -7.484375 3.496094 -7.523438 3.535156 -7.597656 C 3.609375 -7.675781 3.609375 -7.75 3.570312 -7.828125 C 3.496094 -7.941406 3.34375 -7.980469 3.34375 -8.132812 C 3.496094 -8.207031 3.609375 -8.246094 3.722656 -8.320312 C 3.835938 -8.320312 3.914062 -8.359375 3.953125 -8.433594 C 4.027344 -8.585938 4.101562 -8.699219 4.179688 -8.851562 C 4.179688 -8.929688 4.179688 -9.003906 4.066406 -8.96875 C 3.953125 -8.929688 3.914062 -8.96875 3.914062 -9.042969 C 3.875 -9.15625 3.875 -9.269531 4.027344 -9.308594 C 4.21875 -9.308594 4.371094 -9.382812 4.371094 -9.574219 C 4.40625 -9.992188 4.710938 -10.144531 5.015625 -10.335938 C 5.054688 -10.144531 4.789062 -10.105469 4.863281 -9.878906 C 4.976562 -9.726562 4.824219 -9.574219 4.789062 -9.421875 C 4.75 -9.269531 4.671875 -9.117188 4.710938 -8.96875 C 4.710938 -8.777344 4.558594 -8.585938 4.671875 -8.359375 C 4.824219 -8.132812 4.445312 -8.054688 4.519531 -7.828125 L 4.519531 -7.75 C 4.710938 -7.597656 4.710938 -7.597656 4.558594 -7.445312 C 4.445312 -7.296875 4.253906 -7.144531 4.332031 -6.878906 C 4.371094 -6.800781 4.332031 -6.726562 4.332031 -6.648438 C 4.21875 -6.078125 4.21875 -5.472656 4.332031 -4.863281 C 4.40625 -4.292969 4.40625 -3.722656 4.710938 -3.191406 C 4.9375 -2.699219 5.128906 -2.242188 5.699219 -1.976562 C 5.8125 -1.898438 5.925781 -1.785156 6.042969 -1.710938 C 6.308594 -1.445312 6.648438 -1.367188 6.953125 -1.328125 C 7.027344 -1.328125 7.144531 -1.292969 7.21875 -1.292969 C 7.484375 -1.292969 7.714844 -1.40625 7.863281 -1.671875 C 8.054688 -1.9375 8.167969 -2.28125 8.550781 -2.394531 C 8.585938 -2.433594 8.585938 -2.46875 8.625 -2.507812 C 8.851562 -2.964844 9.195312 -3.34375 9.460938 -3.800781 C 9.765625 -4.292969 10.21875 -4.636719 10.335938 -5.207031 C 10.335938 -5.242188 10.371094 -5.242188 10.371094 -5.28125 Z M 10.636719 -6.535156 C 10.90625 -6.535156 10.90625 -6.535156 10.941406 -6.34375 L 10.523438 -6.34375 C 10.488281 -6.460938 10.449219 -6.574219 10.636719 -6.535156 Z M 10.296875 -5.851562 C 10.257812 -5.8125 10.183594 -5.8125 10.144531 -5.773438 C 10.144531 -5.851562 10.144531 -5.890625 10.183594 -5.964844 C 10.183594 -6.003906 10.21875 -6.003906 10.296875 -6.003906 C 10.371094 -6.042969 10.371094 -5.925781 10.296875 -5.851562 Z M 11.589844 -4.40625 C 11.625 -4.445312 11.664062 -4.519531 11.703125 -4.558594 L 11.777344 -4.484375 C 11.816406 -4.40625 11.777344 -4.371094 11.703125 -4.371094 C 11.664062 -4.371094 11.625 -4.40625 11.589844 -4.40625 Z M 2.015625 -6.308594 C 1.976562 -6.230469 1.9375 -6.191406 1.898438 -6.15625 L 1.898438 -6.34375 C 1.898438 -6.382812 1.9375 -6.382812 1.9375 -6.382812 Z M 4.902344 -10.675781 C 4.902344 -10.714844 4.9375 -10.714844 4.9375 -10.714844 L 5.054688 -10.714844 C 5.054688 -10.675781 5.089844 -10.675781 5.054688 -10.636719 C 5.054688 -10.601562 4.902344 -10.636719 4.902344 -10.675781 Z M 11.019531 -7.410156 C 11.132812 -7.332031 10.980469 -7.371094 10.980469 -7.332031 C 10.980469 -7.371094 11.019531 -7.410156 11.019531 -7.410156 Z M 12.5 -5.699219 L 12.460938 -5.660156 L 12.460938 -5.699219 Z M 12.082031 -9.421875 L 12.121094 -9.382812 L 12.082031 -9.382812 Z M 11.890625 -3.265625 L 11.929688 -3.265625 L 11.929688 -3.230469 Z M 12.007812 -4.40625 L 12.042969 -4.40625 L 12.042969 -4.371094 Z M 3.609375 -8.511719 L 3.570312 -8.511719 L 3.570312 -8.550781 Z M 11.550781 -8.246094 L 11.511719 -8.246094 L 11.511719 -8.28125 Z M 12.234375 -8.28125 L 12.273438 -8.28125 L 12.273438 -8.246094 Z M 12.042969 -3.683594 L 12.007812 -3.648438 L 12.007812 -3.683594 Z M 12.273438 -7.105469 L 12.234375 -7.105469 L 12.273438 -7.144531 Z M 11.816406 -7.257812 L 11.777344 -7.257812 L 11.777344 -7.296875 Z M 11.890625 -5.507812 L 11.890625 -5.585938 Z M 12.578125 -8.09375 L 12.578125 -8.167969 Z M 12.578125 -8.09375 "/></g></g></g><g fill="#e6d8ce" fill-opacity="1"><g transform="translate(216.720802, 192.749987)"><g><path d="M 5.925781 -4.75 C 5.964844 -4.824219 5.890625 -4.902344 5.8125 -4.9375 L 5.8125 -5.015625 C 5.8125 -5.089844 5.8125 -5.167969 5.890625 -5.167969 C 5.890625 -5.167969 5.925781 -5.128906 5.964844 -5.128906 C 6.078125 -5.089844 6.230469 -5.054688 6.230469 -4.824219 L 6.230469 -4.101562 C 6.230469 -3.875 6.34375 -3.648438 6.382812 -3.417969 C 6.421875 -2.316406 7.105469 -1.558594 7.902344 -0.875 C 7.941406 -0.835938 8.054688 -0.835938 8.09375 -0.796875 C 8.167969 -0.761719 8.246094 -0.722656 8.320312 -0.722656 C 8.816406 -0.722656 10.335938 -1.976562 10.675781 -2.316406 C 10.828125 -2.433594 10.753906 -2.621094 10.867188 -2.734375 C 10.980469 -2.8125 11.132812 -2.925781 11.246094 -3.039062 C 11.285156 -3.078125 11.285156 -3.152344 11.246094 -3.152344 L 11.132812 -3.152344 C 10.449219 -2.699219 9.800781 -2.242188 9.082031 -1.898438 C 8.851562 -1.785156 8.625 -1.746094 8.398438 -1.746094 C 8.28125 -1.746094 8.167969 -1.746094 8.054688 -1.785156 C 7.714844 -2.242188 7.5625 -2.8125 7.5625 -3.382812 C 7.5625 -5.355469 8.550781 -9.574219 9.347656 -11.171875 C 9.613281 -11.625 9.652344 -12.121094 9.574219 -12.613281 C 9.382812 -12.726562 9.195312 -12.84375 9.003906 -12.84375 C 8.890625 -12.84375 8.777344 -12.804688 8.664062 -12.726562 C 8.625 -12.691406 8.550781 -12.691406 8.511719 -12.691406 C 8.433594 -12.691406 8.398438 -12.691406 8.320312 -12.726562 C 7.789062 -12.996094 7.257812 -12.996094 6.6875 -12.996094 C 5.773438 -12.957031 4.976562 -12.726562 4.253906 -12.121094 C 3.953125 -11.855469 3.648438 -11.511719 3.265625 -11.359375 C 3.230469 -11.324219 3.191406 -11.285156 3.191406 -11.246094 C 3.078125 -11.019531 2.886719 -10.789062 2.699219 -10.714844 C 2.394531 -10.5625 2.46875 -10.21875 2.203125 -10.03125 C 1.40625 -9.308594 0.835938 -8.132812 0.378906 -7.144531 C 0.304688 -7.066406 0.265625 -6.992188 0.226562 -6.914062 C -0.457031 -4.824219 -0.796875 -3.535156 -0.796875 -1.253906 C -0.796875 -0.53125 -0.53125 0.113281 0.0390625 0.609375 L 0.304688 0.875 C 0.417969 0.988281 0.570312 1.0625 0.761719 1.0625 C 0.949219 1.027344 1.179688 1.027344 1.367188 0.910156 C 1.9375 0.644531 3.265625 -0.226562 3.570312 -0.722656 C 3.648438 -0.835938 3.875 -0.875 3.953125 -1.027344 C 4.066406 -1.253906 4.253906 -1.445312 4.40625 -1.632812 C 4.292969 -1.9375 4.671875 -2.089844 4.710938 -2.316406 C 4.75 -2.546875 4.902344 -2.773438 5.015625 -2.964844 C 5.089844 -3.191406 5.207031 -3.382812 5.355469 -3.609375 C 5.433594 -3.761719 5.546875 -3.875 5.507812 -4.066406 C 5.773438 -4.179688 5.851562 -4.484375 5.925781 -4.75 Z M 0.835938 0.0742188 C 0.796875 0.113281 0.722656 0.113281 0.644531 0.152344 C 0.570312 0.0742188 0.492188 0.0390625 0.492188 0 C 0.417969 -0.0742188 0.417969 -0.191406 0.417969 -0.265625 C 0.417969 -0.53125 0.417969 -0.796875 0.304688 -1.0625 C 0.265625 -1.140625 0.265625 -1.253906 0.304688 -1.367188 C 0.457031 -1.898438 0.457031 -2.433594 0.53125 -3 C 0.609375 -3.191406 0.644531 -3.417969 0.683594 -3.609375 C 0.910156 -4.292969 1.027344 -5.015625 1.328125 -5.660156 C 1.519531 -6.078125 1.632812 -6.496094 1.824219 -6.878906 C 1.898438 -7.027344 2.015625 -7.144531 2.089844 -7.296875 C 2.242188 -7.636719 2.507812 -7.902344 2.582031 -8.246094 C 2.621094 -8.28125 2.621094 -8.359375 2.660156 -8.398438 C 3.039062 -8.664062 3.230469 -9.082031 3.609375 -9.382812 C 3.914062 -9.652344 4.179688 -10.03125 4.519531 -10.296875 C 5.089844 -10.714844 5.625 -11.132812 6.308594 -11.398438 C 6.6875 -11.550781 7.027344 -11.777344 7.332031 -12.082031 C 7.445312 -12.160156 7.484375 -12.195312 7.5625 -12.195312 C 7.636719 -12.195312 7.675781 -12.160156 7.75 -12.082031 C 7.980469 -11.890625 8.015625 -11.777344 7.902344 -11.511719 C 7.714844 -11.054688 7.484375 -10.601562 7.371094 -10.105469 C 7.296875 -9.574219 6.878906 -8.28125 6.609375 -7.789062 C 6.269531 -7.027344 5.890625 -6.269531 5.507812 -5.472656 C 5.320312 -4.976562 4.976562 -4.519531 4.671875 -4.066406 C 4.445312 -3.609375 4.140625 -3.191406 3.914062 -2.734375 C 3.152344 -1.519531 2.015625 -0.683594 0.835938 0.0742188 Z M 5.507812 -4.484375 C 5.546875 -4.519531 5.546875 -4.558594 5.546875 -4.597656 L 5.625 -4.519531 C 5.625 -4.484375 5.585938 -4.445312 5.546875 -4.40625 C 5.546875 -4.445312 5.507812 -4.445312 5.507812 -4.484375 Z M 1.179688 -8.09375 L 1.214844 -8.09375 L 1.214844 -8.054688 Z M 6.191406 -5.738281 L 6.15625 -5.738281 L 6.15625 -5.773438 Z M 1.0625 -7.828125 L 1.0625 -7.789062 L 1.027344 -7.789062 Z M 4.824219 -3.230469 L 4.824219 -3.304688 Z M 4.824219 -3.230469 "/></g></g></g><g fill="#e6d8ce" fill-opacity="1"><g transform="translate(227.548595, 192.749987)"><g><path d="M 6.496094 -8.359375 C 6.648438 -8.777344 7.105469 -9.421875 7.523438 -9.765625 C 7.484375 -9.992188 7.484375 -10.03125 7.75 -10.070312 C 7.714844 -10.21875 7.828125 -10.371094 7.902344 -10.488281 C 8.09375 -10.714844 8.320312 -10.941406 8.433594 -11.207031 C 8.433594 -11.285156 8.472656 -11.285156 8.511719 -11.324219 C 8.550781 -11.359375 8.585938 -11.4375 8.664062 -11.359375 C 8.699219 -11.359375 8.738281 -11.285156 8.738281 -11.246094 C 8.699219 -10.867188 8.664062 -10.449219 8.585938 -10.070312 C 8.511719 -9.535156 8.511719 -9.003906 8.398438 -8.472656 C 8.433594 -7.5625 8.167969 -6.6875 8.320312 -5.738281 C 8.359375 -5.699219 8.320312 -5.660156 8.320312 -5.660156 C 8.246094 -5.054688 8.320312 -4.445312 8.433594 -3.800781 C 8.550781 -3.230469 8.890625 -2.699219 9.234375 -2.164062 C 9.269531 -2.089844 9.308594 -2.015625 9.347656 -1.976562 C 9.765625 -1.671875 10.144531 -1.328125 10.5625 -1.0625 C 10.714844 -0.949219 10.90625 -0.910156 11.09375 -0.910156 C 11.890625 -0.910156 13.03125 -1.746094 13.753906 -3.230469 C 13.90625 -3.457031 13.945312 -3.761719 13.832031 -3.761719 C 13.714844 -3.761719 13.527344 -3.609375 13.222656 -3.230469 C 12.652344 -2.242188 12.765625 -2.28125 11.816406 -1.785156 C 11.550781 -1.632812 11.324219 -1.558594 11.132812 -1.558594 C 10.828125 -1.558594 10.5625 -1.785156 10.296875 -2.28125 C 10.144531 -2.699219 9.878906 -3.117188 9.992188 -3.570312 C 10.03125 -3.800781 9.878906 -4.101562 9.878906 -4.332031 C 9.917969 -5.207031 9.878906 -6.078125 9.992188 -6.953125 C 10.03125 -7.21875 9.917969 -7.484375 9.992188 -7.714844 C 10.183594 -8.132812 10.183594 -8.585938 10.21875 -9.003906 C 10.335938 -9.726562 10.449219 -10.410156 10.5625 -11.132812 C 10.636719 -11.550781 10.636719 -12.042969 10.449219 -12.5 C 10.257812 -12.996094 10.105469 -13.144531 9.574219 -13.144531 L 9.421875 -13.144531 C 8.550781 -13.144531 7.714844 -11.855469 7.296875 -11.171875 C 6.914062 -10.523438 6.382812 -9.953125 6.003906 -9.308594 C 5.738281 -8.929688 5.472656 -8.550781 5.242188 -8.132812 C 4.863281 -7.484375 4.636719 -6.761719 4.179688 -6.15625 C 4.140625 -6.117188 4.140625 -6.117188 4.140625 -6.078125 C 3.835938 -5.394531 3.496094 -4.75 3.117188 -4.101562 C 2.851562 -3.683594 2.699219 -3.152344 2.433594 -2.699219 C 1.976562 -1.9375 1.519531 -1.179688 1.027344 -0.417969 C 0.910156 -0.191406 0.761719 -0.0390625 0.53125 -0.0390625 C 0.492188 -0.152344 0.457031 -0.265625 0.457031 -0.378906 C 0.457031 -0.492188 0.492188 -0.570312 0.492188 -0.683594 C 0.609375 -1.328125 0.722656 -2.015625 0.875 -2.660156 C 1.027344 -3.496094 1.179688 -4.371094 1.480469 -5.167969 C 1.632812 -5.585938 1.824219 -5.964844 1.898438 -6.421875 C 1.976562 -6.878906 2.089844 -7.371094 2.316406 -7.789062 C 2.621094 -8.359375 2.8125 -9.003906 3 -9.613281 C 3.039062 -9.800781 3.535156 -11.324219 3.609375 -11.4375 C 3.457031 -11.664062 3.570312 -11.890625 3.417969 -12.082031 C 3.191406 -12.347656 2.964844 -12.578125 2.660156 -12.652344 C 2.582031 -12.691406 2.507812 -12.691406 2.433594 -12.691406 C 1.785156 -12.691406 1.367188 -11.09375 1.253906 -10.601562 C 1.214844 -10.371094 1.179688 -10.105469 1.101562 -9.839844 C 0.761719 -8.851562 0.417969 -7.902344 0.152344 -6.878906 C 0.0742188 -6.535156 0.0390625 -6.15625 -0.191406 -5.851562 C -0.34375 -5.015625 -0.609375 -4.21875 -0.722656 -3.382812 C -0.875 -2.546875 -1.0625 -1.710938 -1.0625 -0.796875 C -1.0625 -0.570312 -1.0625 -0.34375 -1.027344 -0.113281 C -0.949219 0.191406 -0.761719 0.457031 -0.457031 0.644531 C -0.265625 0.796875 -0.0742188 0.910156 0.113281 1.0625 C 0.304688 1.253906 0.492188 1.328125 0.722656 1.328125 C 0.835938 1.328125 0.988281 1.292969 1.101562 1.253906 C 1.214844 1.179688 1.328125 1.0625 1.480469 0.988281 C 1.632812 0.875 1.445312 0.722656 1.519531 0.644531 C 1.671875 0.378906 1.746094 0.113281 1.824219 -0.152344 C 1.898438 -0.304688 1.976562 -0.417969 2.128906 -0.492188 C 2.355469 -0.644531 2.582031 -0.835938 2.582031 -1.179688 C 2.582031 -1.253906 2.621094 -1.367188 2.699219 -1.40625 C 2.925781 -1.480469 2.964844 -1.671875 3.039062 -1.863281 C 3.191406 -2.203125 3.417969 -2.507812 3.609375 -2.8125 C 3.914062 -3.382812 4.21875 -3.953125 4.445312 -4.558594 C 4.710938 -5.207031 5.054688 -5.773438 5.472656 -6.269531 L 5.472656 -6.574219 C 5.773438 -6.648438 5.738281 -7.066406 6.15625 -7.027344 C 6.230469 -7.027344 6.230469 -7.144531 6.191406 -7.179688 C 6.003906 -7.371094 6.042969 -7.484375 6.191406 -7.636719 C 6.269531 -7.789062 6.460938 -7.789062 6.609375 -7.863281 C 6.6875 -7.902344 6.648438 -7.941406 6.496094 -8.09375 Z M 8.585938 -6.230469 C 8.625 -6.800781 8.585938 -7.371094 8.738281 -7.902344 C 8.851562 -7.863281 8.96875 -7.828125 8.929688 -7.675781 C 8.890625 -7.484375 8.777344 -7.332031 8.816406 -7.105469 C 8.890625 -6.914062 8.664062 -6.726562 8.890625 -6.496094 C 8.890625 -6.382812 8.890625 -6.269531 8.851562 -6.117188 C 8.851562 -6.042969 8.777344 -6.003906 8.699219 -6.042969 C 8.625 -6.078125 8.585938 -6.15625 8.585938 -6.230469 Z M 8.929688 -9.042969 C 8.96875 -9.042969 9.003906 -9.003906 9.042969 -8.96875 L 9.042969 -8.890625 C 8.890625 -8.699219 9.082031 -8.472656 8.96875 -8.246094 C 8.890625 -8.207031 8.851562 -8.167969 8.816406 -8.167969 C 8.816406 -8.167969 8.777344 -8.207031 8.777344 -8.246094 C 8.777344 -8.511719 8.777344 -8.738281 8.816406 -9.003906 C 8.816406 -9.042969 8.890625 -9.042969 8.929688 -9.042969 Z M 9.042969 -9.574219 C 9.082031 -9.574219 9.117188 -9.535156 9.195312 -9.5 L 9.195312 -9.421875 C 9.117188 -9.382812 9.003906 -9.347656 8.929688 -9.269531 C 8.890625 -9.269531 8.851562 -9.308594 8.851562 -9.347656 C 8.816406 -9.421875 8.851562 -9.5 8.929688 -9.574219 Z M -0.152344 -3.382812 C -0.191406 -3.34375 -0.265625 -3.304688 -0.304688 -3.265625 C -0.304688 -3.230469 -0.34375 -3.191406 -0.34375 -3.191406 C -0.457031 -3.265625 -0.304688 -3.230469 -0.304688 -3.265625 C -0.304688 -3.34375 -0.34375 -3.417969 -0.304688 -3.457031 C -0.265625 -3.535156 -0.226562 -3.609375 -0.152344 -3.648438 C -0.0742188 -3.683594 -0.0742188 -3.457031 -0.152344 -3.382812 Z M 0 -4.484375 C 0.0390625 -4.445312 0.0390625 -4.40625 0.0742188 -4.371094 C 0.0390625 -4.332031 0 -4.292969 0 -4.332031 C -0.0390625 -4.371094 -0.0390625 -4.40625 -0.0390625 -4.445312 Z M 0.722656 -6.800781 L 0.683594 -6.878906 L 0.761719 -6.839844 Z M -0.378906 -2.355469 L -0.34375 -2.394531 L -0.34375 -2.355469 Z M 0.949219 -7.410156 L 0.910156 -7.371094 L 0.910156 -7.410156 Z M 8.96875 -9.878906 L 8.96875 -9.839844 L 8.929688 -9.839844 Z M 5.433594 -5.625 L 5.394531 -5.660156 L 5.394531 -5.625 Z M 5.433594 -5.625 "/></g></g></g><g fill="#e6d8ce" fill-opacity="1"><g transform="translate(241.035833, 192.749987)"><g/></g></g><g fill="#e6d8ce" fill-opacity="1"><g transform="translate(252.129563, 192.749987)"><g><path d="M 7.21875 -9.234375 C 7.332031 -9.460938 7.523438 -9.652344 7.675781 -9.800781 C 7.714844 -9.800781 7.828125 -9.726562 7.863281 -9.726562 C 8.246094 -9.878906 8.664062 -9.917969 8.929688 -10.257812 C 9.003906 -10.371094 9.15625 -10.410156 9.308594 -10.449219 C 9.726562 -10.523438 10.105469 -10.753906 10.488281 -10.941406 C 10.636719 -11.207031 10.828125 -11.207031 11.09375 -11.207031 C 11.207031 -11.207031 11.285156 -11.246094 11.359375 -11.324219 C 11.742188 -11.550781 12.007812 -11.742188 12.308594 -11.929688 C 12.539062 -12.121094 12.765625 -12.234375 12.996094 -12.386719 C 13.183594 -12.5 13.375 -12.460938 13.527344 -12.652344 C 13.640625 -12.765625 13.832031 -12.804688 13.90625 -12.957031 C 13.90625 -12.996094 14.78125 -13.5625 14.894531 -13.5625 C 15.160156 -13.640625 15.351562 -13.832031 15.386719 -14.132812 C 15.386719 -14.25 15.503906 -14.285156 15.617188 -14.324219 C 15.730469 -14.324219 15.84375 -14.324219 15.882812 -14.4375 C 15.996094 -14.667969 16.222656 -14.703125 16.375 -14.855469 C 16.527344 -15.046875 16.527344 -15.046875 16.300781 -15.3125 C 16.261719 -15.386719 16.300781 -15.539062 16.375 -15.539062 C 16.453125 -15.578125 16.527344 -15.578125 16.605469 -15.578125 C 16.679688 -15.578125 16.753906 -15.578125 16.832031 -15.617188 C 16.871094 -15.617188 16.945312 -15.691406 16.984375 -15.730469 C 17.628906 -16.070312 18.160156 -16.566406 18.351562 -17.324219 C 18.425781 -17.628906 18.578125 -17.894531 18.808594 -18.125 C 19.035156 -18.351562 19.1875 -18.695312 19.1875 -18.996094 C 19.226562 -19.378906 19.339844 -19.71875 19.414062 -20.0625 C 19.566406 -20.785156 19.53125 -21.429688 19.261719 -22.074219 C 18.695312 -23.480469 18.199219 -24.011719 16.945312 -24.925781 C 16.679688 -25.078125 16.414062 -25.304688 16.109375 -25.378906 C 15.691406 -25.457031 15.3125 -25.570312 14.933594 -25.722656 C 14.667969 -25.835938 14.4375 -25.875 14.171875 -25.875 C 14.058594 -25.875 13.90625 -25.875 13.792969 -25.875 C 13.640625 -25.875 13.527344 -25.875 13.375 -25.914062 C 13.109375 -26.027344 12.804688 -26.027344 12.539062 -26.027344 C 11.4375 -26.027344 10.636719 -25.988281 9.535156 -25.835938 C 8.054688 -25.53125 6.003906 -24.203125 5.207031 -22.871094 C 4.519531 -21.921875 4.027344 -20.898438 3.648438 -19.871094 C 3.265625 -18.84375 3.191406 -17.707031 2.964844 -16.640625 C 3 -16.070312 2.734375 -15.617188 2.8125 -15.046875 C 2.8125 -14.96875 2.773438 -14.894531 2.773438 -14.855469 C 2.621094 -14.628906 2.734375 -14.285156 2.621094 -14.058594 C 2.546875 -13.714844 2.546875 -13.449219 2.507812 -13.109375 C 2.507812 -13.03125 2.507812 -12.917969 2.46875 -12.84375 C 2.355469 -12.578125 2.394531 -12.308594 2.355469 -12.082031 C 2.355469 -11.742188 2.433594 -11.4375 2.242188 -11.09375 C 2.203125 -10.980469 2.28125 -10.867188 2.316406 -10.714844 C 2.394531 -10.410156 2.203125 -10.105469 1.9375 -10.105469 L 0.304688 -10.105469 C 0.113281 -10.070312 -0.0742188 -9.800781 0 -9.652344 C 0.152344 -9.347656 0.113281 -9.117188 0.152344 -8.816406 C 0.152344 -8.472656 0.191406 -8.398438 0.53125 -8.398438 L 1.898438 -8.398438 C 1.976562 -8.398438 2.089844 -8.320312 2.089844 -8.207031 C 2.089844 -7.980469 2.128906 -7.675781 2.050781 -7.445312 C 1.9375 -7.144531 1.976562 -6.839844 1.9375 -6.535156 L 1.9375 -5.128906 C 1.9375 -5.015625 1.9375 -4.863281 1.898438 -4.75 C 1.785156 -4.519531 1.785156 -4.253906 1.785156 -3.988281 L 1.785156 -0.949219 C 1.785156 -0.796875 1.824219 -0.570312 1.746094 -0.417969 C 1.632812 -0.0742188 1.746094 0.304688 1.785156 0.644531 C 1.824219 0.949219 1.898438 1.253906 2.089844 1.480469 C 2.242188 1.632812 2.28125 1.863281 2.128906 2.050781 C 2.089844 2.164062 2.089844 2.28125 2.203125 2.28125 C 2.433594 2.433594 2.46875 2.621094 2.621094 2.8125 C 2.660156 2.851562 2.699219 2.886719 2.734375 2.886719 C 2.8125 2.886719 2.851562 2.851562 2.886719 2.773438 C 3.117188 2.089844 3.417969 1.445312 3.570312 0.761719 C 3.683594 0.152344 3.835938 -0.457031 4.066406 -1.027344 C 4.21875 -1.445312 4.292969 -1.898438 4.40625 -2.28125 C 4.445312 -2.46875 4.484375 -2.582031 4.519531 -2.734375 C 4.789062 -3.34375 4.976562 -3.988281 5.28125 -4.597656 C 5.394531 -4.75 5.394531 -4.976562 5.472656 -5.167969 C 5.507812 -5.320312 5.585938 -5.507812 5.660156 -5.660156 C 5.8125 -6.003906 5.964844 -6.34375 6.15625 -6.726562 C 6.230469 -6.6875 6.308594 -6.648438 6.382812 -6.574219 C 6.6875 -6.230469 7.027344 -5.890625 7.371094 -5.546875 C 7.714844 -5.207031 8.09375 -4.902344 8.398438 -4.484375 L 8.511719 -4.371094 C 9.269531 -3.609375 9.878906 -2.734375 10.601562 -1.976562 L 10.636719 -1.9375 C 11.054688 -1.179688 11.777344 -0.683594 12.234375 0.0390625 C 12.691406 0.683594 13.335938 1.101562 13.753906 1.824219 C 14.097656 2.050781 14.324219 2.433594 14.589844 2.734375 C 14.894531 3 15.121094 3.230469 15.3125 3.570312 C 15.425781 3.761719 15.617188 3.988281 15.804688 4.101562 C 16.1875 4.332031 16.488281 4.671875 16.792969 5.015625 C 17.136719 5.472656 17.628906 5.699219 18.007812 6.15625 C 18.046875 6.15625 18.085938 6.191406 18.085938 6.191406 C 18.125 6.15625 18.199219 6.15625 18.238281 6.15625 C 18.425781 6.15625 18.542969 6.382812 18.65625 6.496094 C 18.769531 6.648438 18.960938 6.726562 19.074219 6.800781 C 19.148438 6.839844 19.226562 6.839844 19.261719 6.761719 C 19.300781 6.726562 19.339844 6.648438 19.339844 6.574219 C 19.226562 6.230469 18.960938 6.042969 18.695312 5.8125 C 18.464844 5.660156 18.277344 5.507812 18.085938 5.242188 C 17.667969 4.824219 17.363281 4.292969 16.832031 3.953125 C 16.792969 3.953125 16.753906 3.875 16.753906 3.835938 C 16.679688 3.609375 16.414062 3.570312 16.261719 3.382812 C 16.148438 3.191406 15.996094 2.925781 15.84375 2.773438 C 15.730469 2.621094 15.578125 2.46875 15.425781 2.316406 C 15.121094 2.164062 14.894531 1.898438 14.667969 1.597656 C 14.476562 1.214844 14.132812 0.910156 13.832031 0.53125 C 13.375 0.304688 13.222656 -0.34375 12.765625 -0.53125 C 12.726562 -0.53125 12.726562 -0.570312 12.726562 -0.609375 C 12.691406 -0.949219 12.460938 -1.101562 12.273438 -1.328125 C 12.007812 -1.632812 11.664062 -1.898438 11.472656 -2.28125 C 11.171875 -2.355469 11.171875 -2.734375 10.90625 -2.8125 C 10.867188 -2.851562 10.789062 -2.925781 10.789062 -2.964844 C 10.753906 -3.230469 10.636719 -3.34375 10.449219 -3.417969 C 10.335938 -3.496094 10.257812 -3.570312 10.183594 -3.722656 C 10.03125 -4.253906 7.105469 -7.179688 6.648438 -7.597656 C 6.535156 -7.675781 6.496094 -7.789062 6.574219 -7.941406 C 6.800781 -8.359375 7.027344 -8.777344 7.21875 -9.234375 Z M 12.691406 -13.867188 C 12.578125 -13.5625 12.386719 -13.5625 12.121094 -13.5625 L 12.121094 -13.714844 C 11.929688 -13.714844 11.742188 -13.601562 11.589844 -13.488281 C 11.019531 -13.261719 10.523438 -12.917969 9.992188 -12.691406 C 9.574219 -12.460938 9.195312 -12.234375 8.738281 -12.160156 C 8.738281 -12.234375 8.738281 -12.308594 8.777344 -12.386719 C 9.042969 -12.765625 9.195312 -13.222656 9.382812 -13.601562 C 10.636719 -15.957031 12.460938 -19.492188 12.804688 -22.152344 C 12.84375 -22.53125 12.84375 -22.871094 12.726562 -23.214844 C 12.652344 -23.519531 12.5 -23.671875 12.273438 -23.746094 C 12.195312 -23.785156 12.160156 -23.785156 12.082031 -23.824219 C 11.664062 -23.558594 11.4375 -23.140625 11.324219 -22.605469 C 11.246094 -22.113281 11.132812 -21.65625 10.980469 -21.203125 C 10.675781 -20.480469 10.449219 -19.644531 10.183594 -18.882812 C 10.03125 -18.503906 9.878906 -18.199219 9.726562 -17.820312 C 9.6875 -17.742188 9.613281 -17.667969 9.6875 -17.554688 C 9.765625 -17.476562 9.765625 -17.363281 9.726562 -17.25 C 9.726562 -17.210938 9.6875 -17.171875 9.652344 -17.171875 C 9.613281 -17.171875 9.535156 -17.25 9.5 -17.171875 C 9.382812 -16.984375 9.269531 -16.71875 9.195312 -16.488281 C 9.15625 -16.414062 9.15625 -16.300781 9.082031 -16.222656 C 8.664062 -15.691406 8.433594 -14.96875 8.015625 -14.476562 C 7.863281 -14.210938 7.789062 -13.945312 7.636719 -13.679688 C 7.484375 -13.375 7.332031 -13.03125 7.179688 -12.765625 C 6.992188 -12.425781 6.953125 -12.082031 6.6875 -11.777344 C 6.648438 -11.742188 6.648438 -11.664062 6.648438 -11.589844 C 6.15625 -10.488281 4.027344 -10.296875 3 -10.296875 C 2.886719 -10.296875 2.8125 -10.371094 2.8125 -10.488281 C 2.851562 -11.132812 2.734375 -11.777344 2.925781 -12.386719 C 2.964844 -12.539062 2.964844 -12.726562 2.964844 -12.878906 C 2.964844 -13.109375 2.925781 -13.414062 3.078125 -13.640625 C 3.078125 -13.679688 3.117188 -13.753906 3.078125 -13.867188 C 3.039062 -14.4375 3.230469 -14.933594 3.265625 -15.464844 C 3.304688 -15.769531 3.457031 -16.035156 3.535156 -16.335938 C 3.609375 -16.527344 3.683594 -16.71875 3.683594 -16.945312 C 3.683594 -17.324219 3.914062 -17.667969 4.066406 -18.046875 C 4.292969 -18.65625 4.519531 -19.261719 4.710938 -19.910156 C 4.789062 -20.175781 4.9375 -20.441406 5.167969 -20.632812 C 5.320312 -20.785156 5.472656 -21.011719 5.472656 -21.238281 C 5.433594 -21.65625 5.625 -21.886719 5.851562 -22.152344 C 5.964844 -22.304688 6.003906 -22.492188 6.078125 -22.644531 C 6.15625 -22.796875 6.230469 -22.871094 6.34375 -22.910156 C 6.421875 -22.988281 6.460938 -23.0625 6.496094 -23.101562 C 6.535156 -23.175781 6.609375 -23.175781 6.609375 -23.101562 C 6.648438 -23.023438 6.648438 -22.988281 6.648438 -22.910156 C 7.980469 -24.089844 9.726562 -24.886719 11.511719 -24.886719 C 11.742188 -24.886719 11.890625 -24.925781 12.082031 -25.039062 C 12.160156 -25.078125 12.273438 -25.078125 12.308594 -25.039062 C 12.460938 -24.925781 12.691406 -24.925781 12.84375 -24.925781 C 14.742188 -24.925781 15.730469 -24.621094 17.363281 -23.632812 C 17.707031 -23.328125 17.859375 -22.949219 18.007812 -22.492188 C 18.277344 -21.695312 18.160156 -20.859375 17.894531 -20.097656 C 17.742188 -19.453125 17.554688 -18.84375 17.171875 -18.3125 C 17.058594 -18.160156 16.945312 -18.007812 16.984375 -17.78125 C 17.058594 -17.820312 17.136719 -17.859375 17.25 -17.894531 C 17.25 -17.628906 16.945312 -16.753906 16.792969 -16.753906 C 16.488281 -16.640625 16.414062 -16.375 16.300781 -16.035156 C 16.148438 -15.652344 15.84375 -15.3125 15.425781 -15.121094 C 15.046875 -14.894531 14.589844 -14.703125 14.171875 -14.589844 C 14.132812 -14.589844 14.097656 -14.550781 14.097656 -14.550781 C 14.019531 -14.550781 14.058594 -14.703125 14.019531 -14.78125 C 13.488281 -14.515625 12.917969 -14.324219 12.425781 -14.019531 C 12.273438 -13.945312 12.160156 -13.867188 12.121094 -13.679688 C 12.234375 -13.714844 12.347656 -13.753906 12.425781 -13.832031 C 12.539062 -13.832031 12.613281 -13.867188 12.691406 -13.867188 Z M 2.546875 -7.445312 C 2.699219 -7.789062 2.621094 -8.207031 2.699219 -8.625 C 3.535156 -8.625 4.21875 -8.320312 4.824219 -7.75 C 4.066406 -5.773438 3.417969 -3.761719 2.8125 -1.746094 C 2.773438 -1.632812 2.734375 -1.519531 2.660156 -1.40625 C 2.660156 -1.367188 2.621094 -1.367188 2.546875 -1.328125 L 2.546875 -7.066406 C 2.546875 -7.179688 2.507812 -7.332031 2.546875 -7.445312 Z M 12.121094 -12.917969 C 12.121094 -12.84375 12.042969 -12.804688 11.96875 -12.765625 C 11.890625 -12.539062 11.742188 -12.386719 11.511719 -12.308594 C 10.828125 -12.082031 10.183594 -11.742188 9.613281 -11.324219 C 9.5 -11.207031 9.308594 -11.207031 9.15625 -11.132812 C 8.851562 -10.980469 8.511719 -10.828125 8.207031 -10.601562 C 8.167969 -10.601562 8.054688 -10.636719 8.015625 -10.636719 C 7.980469 -10.714844 7.980469 -10.828125 8.015625 -10.867188 C 8.054688 -10.941406 8.167969 -11.019531 8.207031 -11.019531 C 8.777344 -11.171875 9.234375 -11.511719 9.726562 -11.742188 C 10.21875 -12.042969 10.753906 -12.234375 11.246094 -12.539062 C 11.472656 -12.652344 11.625 -12.804688 11.816406 -12.804688 C 11.855469 -12.804688 11.929688 -12.765625 11.96875 -12.765625 C 12.007812 -12.878906 12.042969 -12.917969 12.121094 -12.917969 Z M 7.828125 -13.601562 C 7.941406 -13.753906 8.054688 -13.980469 8.28125 -14.019531 C 8.359375 -14.363281 8.511719 -14.742188 8.738281 -15.046875 L 8.816406 -15.085938 C 8.816406 -15.046875 8.851562 -14.96875 8.851562 -14.933594 C 8.851562 -14.855469 8.851562 -14.78125 8.816406 -14.703125 C 8.699219 -14.550781 8.585938 -14.324219 8.550781 -14.132812 C 8.511719 -14.019531 8.359375 -14.058594 8.28125 -14.019531 C 8.320312 -13.945312 8.398438 -13.867188 8.359375 -13.753906 C 8.359375 -13.640625 8.28125 -13.488281 8.207031 -13.449219 C 8.015625 -13.335938 7.902344 -13.261719 7.789062 -13.070312 C 7.636719 -12.84375 7.714844 -12.539062 7.597656 -12.347656 C 7.484375 -12.160156 7.21875 -11.96875 7.21875 -11.703125 C 7.21875 -11.550781 7.066406 -11.472656 6.992188 -11.324219 C 6.953125 -11.324219 6.878906 -11.285156 6.839844 -11.285156 C 6.839844 -11.324219 6.800781 -11.4375 6.800781 -11.4375 C 6.953125 -11.703125 7.027344 -12.042969 7.21875 -12.234375 C 7.332031 -12.308594 7.332031 -12.460938 7.371094 -12.539062 C 7.523438 -12.917969 7.675781 -13.296875 7.828125 -13.601562 Z M 4.976562 -9.992188 C 4.519531 -9.878906 4.140625 -9.6875 3.683594 -9.6875 C 3.648438 -9.6875 3.609375 -9.6875 3.570312 -9.6875 C 3.457031 -9.6875 3.304688 -9.6875 3.191406 -9.726562 L 3.191406 -9.839844 C 3.34375 -9.953125 3.457031 -9.953125 3.648438 -9.953125 C 4.101562 -9.953125 4.519531 -10.105469 4.976562 -10.144531 C 5.054688 -10.183594 5.128906 -10.257812 5.167969 -10.257812 C 5.207031 -10.257812 5.242188 -10.257812 5.242188 -10.183594 C 5.28125 -10.070312 5.128906 -9.992188 4.976562 -9.992188 Z M 10.601562 -12.613281 C 10.5625 -12.5 10.523438 -12.425781 10.449219 -12.386719 C 10.144531 -12.234375 9.878906 -12.042969 9.535156 -11.890625 C 9.234375 -11.777344 8.929688 -11.625 8.625 -11.511719 C 8.585938 -11.472656 8.511719 -11.359375 8.472656 -11.511719 C 8.472656 -11.550781 8.511719 -11.625 8.511719 -11.625 C 9.195312 -11.929688 9.878906 -12.273438 10.601562 -12.613281 Z M 15.007812 -15.691406 C 14.589844 -15.464844 14.324219 -15.199219 14.058594 -14.816406 C 14.132812 -14.816406 14.210938 -14.816406 14.25 -14.816406 C 14.324219 -14.816406 14.398438 -14.816406 14.476562 -14.933594 C 14.589844 -15.160156 14.855469 -15.273438 15.007812 -15.464844 C 15.046875 -15.503906 15.085938 -15.617188 15.007812 -15.691406 Z M 5.28125 -9.800781 C 5.320312 -9.917969 5.433594 -9.953125 5.546875 -9.953125 C 5.585938 -9.953125 5.660156 -9.953125 5.699219 -9.917969 L 5.699219 -9.800781 C 5.625 -9.726562 5.546875 -9.6875 5.433594 -9.6875 C 5.394531 -9.6875 5.355469 -9.6875 5.320312 -9.6875 C 5.242188 -9.726562 5.242188 -9.765625 5.28125 -9.800781 Z M 5.546875 -10.410156 C 5.660156 -10.449219 5.8125 -10.523438 5.925781 -10.5625 L 5.964844 -10.523438 L 5.964844 -10.410156 C 5.851562 -10.335938 5.773438 -10.296875 5.625 -10.296875 C 5.546875 -10.335938 5.546875 -10.371094 5.546875 -10.410156 Z M 16.222656 -17.023438 C 16.109375 -16.945312 16.109375 -16.832031 16.109375 -16.679688 C 16.222656 -16.679688 16.300781 -16.832031 16.375 -16.945312 C 16.375 -16.945312 16.335938 -17.023438 16.335938 -17.058594 C 16.300781 -17.058594 16.261719 -17.058594 16.222656 -17.023438 Z M 6.34375 -22.910156 C 6.421875 -22.796875 6.460938 -22.757812 6.496094 -22.757812 C 6.535156 -22.757812 6.574219 -22.796875 6.648438 -22.910156 Z M 10.636719 -12.652344 C 10.675781 -12.765625 10.714844 -12.765625 10.789062 -12.765625 C 10.828125 -12.765625 10.867188 -12.765625 10.90625 -12.765625 C 10.867188 -12.652344 10.828125 -12.652344 10.753906 -12.652344 C 10.714844 -12.652344 10.675781 -12.652344 10.636719 -12.652344 Z M 12.957031 -13.945312 C 12.917969 -13.945312 12.917969 -13.90625 12.878906 -13.90625 L 12.726562 -13.90625 C 12.765625 -13.945312 12.804688 -13.980469 12.84375 -14.019531 C 12.84375 -14.019531 12.917969 -13.980469 12.957031 -13.945312 Z M 15.503906 -16.035156 C 15.425781 -16.035156 15.386719 -15.957031 15.386719 -15.882812 C 15.464844 -15.917969 15.503906 -15.957031 15.503906 -16.035156 Z M 16.109375 -16.640625 C 16.035156 -16.640625 15.957031 -16.605469 15.957031 -16.527344 C 16.035156 -16.527344 16.070312 -16.566406 16.109375 -16.640625 Z M 12.878906 -13.296875 C 12.84375 -13.296875 12.765625 -13.261719 12.691406 -13.261719 C 12.765625 -13.296875 12.804688 -13.335938 12.84375 -13.375 C 12.84375 -13.375 12.917969 -13.335938 12.957031 -13.335938 C 12.917969 -13.335938 12.917969 -13.296875 12.878906 -13.296875 Z M 4.976562 -9.652344 L 4.976562 -9.535156 L 4.9375 -9.574219 Z M 8.816406 -13.527344 L 8.816406 -13.449219 L 8.777344 -13.449219 Z M 5.546875 -6.6875 L 5.585938 -6.574219 L 5.546875 -6.648438 Z M 11.589844 -13.109375 L 11.589844 -13.144531 L 11.625 -13.144531 Z M 16.984375 -17.78125 C 16.984375 -17.78125 16.945312 -17.742188 16.945312 -17.742188 C 16.984375 -17.742188 16.984375 -17.742188 16.984375 -17.78125 Z M 11.246094 -12.996094 L 11.285156 -13.03125 L 11.285156 -12.996094 Z M 8.054688 -12.273438 L 8.054688 -12.234375 L 8.015625 -12.234375 Z M 6.574219 -8.777344 L 6.535156 -8.816406 L 6.574219 -8.816406 Z M 18.238281 -17.707031 L 18.277344 -17.707031 L 18.277344 -17.667969 Z M 17.78125 -17.097656 L 17.78125 -17.058594 L 17.742188 -17.058594 Z M 4.332031 -9.421875 L 4.371094 -9.421875 L 4.371094 -9.382812 Z M 15.386719 -15.882812 C 15.351562 -15.882812 15.351562 -15.882812 15.351562 -15.882812 Z M 15.617188 -14.742188 L 15.539062 -14.742188 Z M 17.210938 5.089844 L 17.210938 5.015625 Z M 4.671875 -4.292969 L 4.597656 -4.292969 Z M 4.671875 -4.292969 "/></g></g></g><g fill="#e6d8ce" fill-opacity="1"><g transform="translate(268.884136, 192.749987)"><g><path d="M 5.925781 -3.761719 C 5.964844 -3.800781 6.003906 -3.835938 6.042969 -3.875 C 6.117188 -3.988281 6.117188 -4.21875 6.042969 -4.140625 C 6.003906 -4.101562 5.925781 -4.027344 5.890625 -3.953125 C 5.890625 -3.914062 5.925781 -3.835938 5.925781 -3.800781 C 5.507812 -3.722656 5.507812 -3.304688 5.320312 -3.191406 C 5.242188 -3.191406 5.207031 -3.152344 5.207031 -3.117188 C 5.242188 -3.117188 5.28125 -3.152344 5.320312 -3.152344 C 5.28125 -3.117188 5.242188 -3.039062 5.207031 -3 C 5.207031 -3 5.207031 -3.039062 5.207031 -3.078125 L 5.089844 -2.964844 C 5.089844 -2.964844 5.089844 -2.925781 5.128906 -2.886719 C 4.671875 -2.203125 3.191406 -0.492188 2.46875 -0.34375 C 2.355469 -0.191406 2.015625 -0.722656 1.785156 -0.722656 C 1.746094 -0.796875 1.746094 -0.875 1.671875 -0.910156 C 1.480469 -1.253906 1.445312 -1.597656 1.519531 -1.9375 C 1.519531 -2.128906 1.519531 -2.355469 1.558594 -2.507812 C 1.597656 -3 1.558594 -3.496094 1.746094 -3.988281 C 1.785156 -4.066406 1.785156 -4.140625 1.710938 -4.21875 C 1.671875 -4.292969 1.671875 -4.371094 1.710938 -4.445312 C 1.898438 -4.671875 1.898438 -5.054688 1.9375 -5.355469 C 2.015625 -5.699219 1.976562 -6.042969 2.203125 -6.308594 C 2.128906 -6.6875 2.394531 -6.914062 2.46875 -7.296875 C 2.546875 -7.675781 2.8125 -8.777344 2.964844 -9.117188 C 3.570312 -10.410156 4.140625 -11.777344 4.40625 -13.183594 C 4.445312 -13.5625 4.179688 -14.058594 3.835938 -14.25 C 3.761719 -14.25 3.683594 -14.285156 3.609375 -14.285156 L 3.191406 -14.285156 C 3.117188 -14.285156 3.039062 -14.25 2.964844 -14.210938 C 2.582031 -13.601562 2.355469 -12.957031 2.128906 -12.273438 C 1.976562 -11.742188 1.824219 -11.171875 1.632812 -10.636719 C 1.558594 -10.371094 1.445312 -10.183594 1.367188 -9.917969 C 1.0625 -8.890625 0.796875 -7.863281 0.492188 -6.878906 C 0.417969 -6.421875 0.265625 -6.042969 0.226562 -5.660156 C 0.191406 -4.9375 0.0742188 -4.21875 0 -3.496094 C -0.0390625 -2.964844 -0.0742188 -2.433594 0.0742188 -1.863281 C 0.113281 -1.785156 0.113281 -1.671875 0.152344 -1.558594 C 0.191406 -1.253906 0.34375 -0.988281 0.53125 -0.761719 C 0.761719 -0.492188 0.988281 -0.191406 1.214844 0.0742188 C 1.40625 0.34375 1.671875 0.53125 2.015625 0.644531 C 2.128906 0.722656 2.28125 0.722656 2.433594 0.722656 C 3.078125 0.722656 3.953125 0.265625 4.371094 -0.304688 C 4.636719 -0.53125 4.558594 -0.609375 4.789062 -0.910156 C 5.015625 -1.140625 5.320312 -1.9375 5.207031 -2.316406 C 5.207031 -2.394531 5.167969 -2.46875 5.242188 -2.46875 C 5.320312 -2.433594 5.355469 -2.355469 5.433594 -2.316406 C 5.507812 -2.433594 5.394531 -2.582031 5.433594 -2.699219 C 5.472656 -2.851562 5.546875 -2.964844 5.625 -3.117188 C 5.699219 -3.304688 5.890625 -3.535156 5.890625 -3.761719 Z M 3.953125 -17.25 C 4.179688 -17.058594 4.484375 -16.984375 4.789062 -16.832031 C 4.9375 -16.90625 5.128906 -16.984375 5.320312 -17.058594 C 5.433594 -17.097656 5.472656 -17.210938 5.472656 -17.289062 C 5.585938 -17.667969 5.507812 -18.007812 5.660156 -18.351562 C 5.699219 -18.390625 5.660156 -18.425781 5.625 -18.464844 C 5.546875 -18.542969 5.394531 -18.617188 5.28125 -18.617188 C 5.242188 -18.617188 5.207031 -18.617188 5.167969 -18.578125 C 4.824219 -18.351562 4.445312 -18.085938 4.140625 -17.820312 C 4.027344 -17.742188 3.953125 -17.628906 3.875 -17.515625 C 3.835938 -17.441406 3.875 -17.289062 3.953125 -17.25 Z M 5.207031 -3 C 5.207031 -2.964844 5.207031 -2.925781 5.207031 -2.925781 C 5.207031 -2.886719 5.167969 -2.886719 5.167969 -2.851562 C 5.167969 -2.925781 5.167969 -2.964844 5.207031 -3 Z M 5.207031 -3 "/></g></g></g><g fill="#e6d8ce" fill-opacity="1"><g transform="translate(274.658962, 192.749987)"><g><path d="M 8.890625 -11.324219 C 8.816406 -11.285156 8.777344 -11.285156 8.738281 -11.207031 C 8.585938 -10.941406 8.359375 -10.675781 8.207031 -10.410156 C 7.789062 -9.839844 7.445312 -9.269531 7.105469 -8.664062 L 6.648438 -7.863281 C 6.609375 -7.675781 6.535156 -7.523438 6.421875 -7.332031 C 6.191406 -6.914062 6.003906 -6.535156 5.851562 -6.117188 C 5.507812 -5.394531 5.320312 -4.75 4.976562 -4.066406 C 4.824219 -3.609375 4.597656 -3.117188 4.371094 -2.621094 C 4.332031 -2.582031 4.332031 -2.507812 4.332031 -2.433594 C 4.21875 -2.128906 4.027344 -1.824219 3.875 -1.480469 C 3.875 -1.445312 3.875 -1.40625 3.835938 -1.40625 C 3.761719 -1.328125 3.835938 -1.445312 3.761719 -1.40625 C 3.683594 -1.671875 3.535156 -1.9375 3.496094 -2.242188 C 3.304688 -3 3.152344 -3.722656 3.039062 -4.484375 C 3 -4.671875 2.886719 -4.824219 2.851562 -5.015625 C 2.851562 -5.394531 2.734375 -5.773438 2.660156 -6.15625 C 2.507812 -6.953125 2.316406 -7.75 2.128906 -8.550781 C 2.050781 -8.738281 1.9375 -8.96875 1.9375 -9.195312 C 1.898438 -9.574219 1.671875 -9.878906 1.746094 -10.257812 C 1.558594 -10.980469 1.367188 -11.742188 1.214844 -12.5 C 1.101562 -12.878906 0.910156 -13.183594 0.492188 -13.296875 C 0.417969 -13.296875 0.34375 -13.335938 0.265625 -13.335938 C 0.152344 -13.335938 0.0390625 -13.296875 -0.113281 -13.222656 C -0.265625 -13.109375 -0.378906 -12.996094 -0.417969 -12.726562 C -0.378906 -12.613281 -0.34375 -12.5 -0.226562 -12.386719 C -0.191406 -12.121094 -0.113281 -11.890625 -0.0390625 -11.625 C 0.152344 -10.601562 0.417969 -9.574219 0.683594 -8.585938 C 1.101562 -7.027344 1.40625 -5.394531 1.710938 -3.800781 C 2.015625 -2.546875 2.316406 -1.214844 2.546875 0.0390625 C 2.660156 0.34375 2.699219 0.570312 3 0.570312 C 3.039062 0.570312 3.078125 0.570312 3.117188 0.570312 C 3.191406 0.570312 3.304688 0.609375 3.34375 0.644531 C 3.457031 0.835938 3.609375 0.835938 3.835938 0.875 C 3.875 0.910156 3.914062 0.910156 3.953125 0.910156 C 4.027344 0.910156 4.140625 0.875 4.179688 0.761719 C 4.40625 0.265625 4.710938 -0.226562 4.902344 -0.761719 C 5.128906 -1.253906 5.207031 -1.824219 5.507812 -2.316406 C 5.546875 -2.316406 5.546875 -2.355469 5.507812 -2.394531 C 5.507812 -2.660156 5.625 -2.851562 5.8125 -3.039062 C 5.890625 -3.117188 5.925781 -3.152344 5.890625 -3.191406 C 5.699219 -3.34375 5.738281 -3.417969 5.925781 -3.535156 C 6.078125 -3.648438 6.117188 -3.835938 6.117188 -3.988281 C 6.15625 -4.179688 6.269531 -4.371094 6.34375 -4.519531 C 6.535156 -4.9375 6.761719 -5.355469 6.839844 -5.773438 C 6.992188 -6.042969 7.332031 -6.839844 7.410156 -7.144531 C 7.484375 -7.332031 7.636719 -7.484375 7.789062 -7.636719 C 7.828125 -7.675781 7.828125 -7.75 7.863281 -7.828125 C 8.132812 -8.585938 8.664062 -9.382812 9.082031 -10.070312 C 9.421875 -10.601562 9.878906 -11.054688 10.21875 -11.589844 C 10.335938 -11.703125 10.371094 -11.816406 10.523438 -11.890625 C 10.675781 -11.929688 10.753906 -12.042969 10.828125 -12.121094 C 11.09375 -12.347656 11.324219 -12.539062 11.472656 -12.804688 C 11.742188 -13.070312 12.042969 -13.109375 12.308594 -13.375 C 12.386719 -13.414062 12.425781 -13.527344 12.460938 -13.601562 C 12.613281 -13.640625 12.765625 -13.679688 12.84375 -13.714844 C 12.996094 -13.792969 13.070312 -13.90625 13.03125 -14.058594 C 13.03125 -14.132812 12.957031 -14.210938 12.878906 -14.210938 C 12.84375 -14.25 12.765625 -14.25 12.726562 -14.25 C 12.578125 -14.25 12.460938 -14.171875 12.308594 -14.132812 C 11.511719 -13.753906 9.15625 -12.195312 8.851562 -11.324219 Z M 7.941406 -9.652344 C 8.132812 -9.992188 8.207031 -10.335938 8.550781 -10.523438 C 8.550781 -10.371094 8.550781 -10.21875 8.398438 -10.144531 C 8.246094 -9.992188 8.207031 -9.6875 7.941406 -9.652344 C 7.902344 -9.269531 7.636719 -8.890625 7.5625 -8.550781 C 7.332031 -8.398438 7.296875 -8.207031 7.296875 -8.054688 C 7.296875 -8.015625 7.296875 -7.980469 7.257812 -7.980469 C 6.953125 -7.75 6.953125 -7.410156 6.800781 -7.144531 C 6.839844 -6.992188 6.535156 -6.839844 6.761719 -6.6875 L 6.726562 -6.648438 C 6.609375 -6.609375 6.574219 -6.460938 6.574219 -6.382812 C 6.117188 -5.890625 6.078125 -5.773438 5.925781 -5.242188 C 5.8125 -5.015625 5.773438 -4.789062 5.699219 -4.597656 C 5.660156 -4.558594 5.625 -4.558594 5.546875 -4.519531 C 5.546875 -4.558594 5.507812 -4.636719 5.546875 -4.636719 C 5.699219 -4.863281 5.660156 -5.128906 5.773438 -5.394531 C 6.042969 -6.003906 6.34375 -6.609375 6.574219 -7.257812 C 6.839844 -7.789062 7.105469 -8.320312 7.410156 -8.816406 C 7.5625 -8.96875 7.675781 -9.15625 7.714844 -9.308594 C 7.789062 -9.421875 7.828125 -9.613281 7.941406 -9.652344 Z M 5.394531 -4.101562 C 5.394531 -3.914062 5.28125 -3.800781 5.242188 -3.648438 C 5.089844 -3.875 5.28125 -3.988281 5.320312 -4.140625 L 5.355469 -4.140625 C 5.394531 -4.140625 5.394531 -4.140625 5.394531 -4.101562 Z M 8.851562 -10.941406 C 8.851562 -11.09375 8.890625 -11.171875 8.890625 -11.324219 L 9.003906 -11.324219 L 9.003906 -11.09375 C 9.003906 -11.019531 8.96875 -10.941406 8.851562 -10.941406 Z M 2.203125 -5.015625 C 2.242188 -5.089844 2.316406 -5.167969 2.355469 -5.242188 C 2.355469 -5.128906 2.355469 -5.089844 2.316406 -5.015625 C 2.316406 -4.976562 2.28125 -4.9375 2.28125 -4.902344 C 2.242188 -4.9375 2.203125 -4.976562 2.203125 -5.015625 Z M 1.863281 -7.371094 C 1.863281 -7.332031 1.898438 -7.296875 1.898438 -7.257812 C 1.898438 -7.21875 1.863281 -7.21875 1.824219 -7.179688 L 1.824219 -7.296875 C 1.824219 -7.332031 1.863281 -7.332031 1.863281 -7.371094 Z M 2.964844 -2.433594 C 2.964844 -2.394531 2.964844 -2.316406 2.964844 -2.242188 C 2.925781 -2.28125 2.925781 -2.316406 2.886719 -2.355469 C 2.886719 -2.394531 2.925781 -2.394531 2.964844 -2.433594 Z M 2.660156 -3.648438 C 2.621094 -3.648438 2.582031 -3.722656 2.621094 -3.761719 C 2.660156 -3.761719 2.660156 -3.722656 2.699219 -3.683594 Z M 7.296875 -7.597656 C 7.296875 -7.5625 7.332031 -7.5625 7.332031 -7.523438 C 7.296875 -7.484375 7.21875 -7.445312 7.21875 -7.445312 C 7.257812 -7.523438 7.257812 -7.5625 7.296875 -7.597656 Z M 2.089844 -6.34375 C 2.128906 -6.308594 2.128906 -6.269531 2.164062 -6.230469 C 2.128906 -6.230469 2.128906 -6.191406 2.089844 -6.15625 C 2.089844 -6.230469 2.089844 -6.269531 2.089844 -6.34375 Z M 7.75 -8.511719 L 7.789062 -8.433594 L 7.75 -8.433594 Z M 2.582031 -4.066406 L 2.546875 -4.027344 L 2.507812 -4.027344 Z M 5.925781 -4.824219 L 5.964844 -4.789062 L 5.925781 -4.789062 Z M 6.421875 -5.699219 L 6.421875 -5.660156 L 6.382812 -5.660156 Z M 3.230469 -0.875 L 3.265625 -0.910156 L 3.265625 -0.875 Z M 3.191406 -1.40625 L 3.230469 -1.367188 L 3.191406 -1.367188 Z M 3.34375 -0.644531 L 3.382812 -0.644531 L 3.34375 -0.609375 Z M 2.734375 -3.039062 L 2.773438 -3.039062 L 2.773438 -3 Z M 5.054688 -3.265625 L 4.976562 -3.265625 Z M 7.902344 -8.890625 L 7.902344 -8.816406 Z M 7.902344 -8.890625 "/></g></g></g><g fill="#e6d8ce" fill-opacity="1"><g transform="translate(284.119025, 192.749987)"><g><path d="M 5.925781 -3.761719 C 5.964844 -3.800781 6.003906 -3.835938 6.042969 -3.875 C 6.117188 -3.988281 6.117188 -4.21875 6.042969 -4.140625 C 6.003906 -4.101562 5.925781 -4.027344 5.890625 -3.953125 C 5.890625 -3.914062 5.925781 -3.835938 5.925781 -3.800781 C 5.507812 -3.722656 5.507812 -3.304688 5.320312 -3.191406 C 5.242188 -3.191406 5.207031 -3.152344 5.207031 -3.117188 C 5.242188 -3.117188 5.28125 -3.152344 5.320312 -3.152344 C 5.28125 -3.117188 5.242188 -3.039062 5.207031 -3 C 5.207031 -3 5.207031 -3.039062 5.207031 -3.078125 L 5.089844 -2.964844 C 5.089844 -2.964844 5.089844 -2.925781 5.128906 -2.886719 C 4.671875 -2.203125 3.191406 -0.492188 2.46875 -0.34375 C 2.355469 -0.191406 2.015625 -0.722656 1.785156 -0.722656 C 1.746094 -0.796875 1.746094 -0.875 1.671875 -0.910156 C 1.480469 -1.253906 1.445312 -1.597656 1.519531 -1.9375 C 1.519531 -2.128906 1.519531 -2.355469 1.558594 -2.507812 C 1.597656 -3 1.558594 -3.496094 1.746094 -3.988281 C 1.785156 -4.066406 1.785156 -4.140625 1.710938 -4.21875 C 1.671875 -4.292969 1.671875 -4.371094 1.710938 -4.445312 C 1.898438 -4.671875 1.898438 -5.054688 1.9375 -5.355469 C 2.015625 -5.699219 1.976562 -6.042969 2.203125 -6.308594 C 2.128906 -6.6875 2.394531 -6.914062 2.46875 -7.296875 C 2.546875 -7.675781 2.8125 -8.777344 2.964844 -9.117188 C 3.570312 -10.410156 4.140625 -11.777344 4.40625 -13.183594 C 4.445312 -13.5625 4.179688 -14.058594 3.835938 -14.25 C 3.761719 -14.25 3.683594 -14.285156 3.609375 -14.285156 L 3.191406 -14.285156 C 3.117188 -14.285156 3.039062 -14.25 2.964844 -14.210938 C 2.582031 -13.601562 2.355469 -12.957031 2.128906 -12.273438 C 1.976562 -11.742188 1.824219 -11.171875 1.632812 -10.636719 C 1.558594 -10.371094 1.445312 -10.183594 1.367188 -9.917969 C 1.0625 -8.890625 0.796875 -7.863281 0.492188 -6.878906 C 0.417969 -6.421875 0.265625 -6.042969 0.226562 -5.660156 C 0.191406 -4.9375 0.0742188 -4.21875 0 -3.496094 C -0.0390625 -2.964844 -0.0742188 -2.433594 0.0742188 -1.863281 C 0.113281 -1.785156 0.113281 -1.671875 0.152344 -1.558594 C 0.191406 -1.253906 0.34375 -0.988281 0.53125 -0.761719 C 0.761719 -0.492188 0.988281 -0.191406 1.214844 0.0742188 C 1.40625 0.34375 1.671875 0.53125 2.015625 0.644531 C 2.128906 0.722656 2.28125 0.722656 2.433594 0.722656 C 3.078125 0.722656 3.953125 0.265625 4.371094 -0.304688 C 4.636719 -0.53125 4.558594 -0.609375 4.789062 -0.910156 C 5.015625 -1.140625 5.320312 -1.9375 5.207031 -2.316406 C 5.207031 -2.394531 5.167969 -2.46875 5.242188 -2.46875 C 5.320312 -2.433594 5.355469 -2.355469 5.433594 -2.316406 C 5.507812 -2.433594 5.394531 -2.582031 5.433594 -2.699219 C 5.472656 -2.851562 5.546875 -2.964844 5.625 -3.117188 C 5.699219 -3.304688 5.890625 -3.535156 5.890625 -3.761719 Z M 3.953125 -17.25 C 4.179688 -17.058594 4.484375 -16.984375 4.789062 -16.832031 C 4.9375 -16.90625 5.128906 -16.984375 5.320312 -17.058594 C 5.433594 -17.097656 5.472656 -17.210938 5.472656 -17.289062 C 5.585938 -17.667969 5.507812 -18.007812 5.660156 -18.351562 C 5.699219 -18.390625 5.660156 -18.425781 5.625 -18.464844 C 5.546875 -18.542969 5.394531 -18.617188 5.28125 -18.617188 C 5.242188 -18.617188 5.207031 -18.617188 5.167969 -18.578125 C 4.824219 -18.351562 4.445312 -18.085938 4.140625 -17.820312 C 4.027344 -17.742188 3.953125 -17.628906 3.875 -17.515625 C 3.835938 -17.441406 3.875 -17.289062 3.953125 -17.25 Z M 5.207031 -3 C 5.207031 -2.964844 5.207031 -2.925781 5.207031 -2.925781 C 5.207031 -2.886719 5.167969 -2.886719 5.167969 -2.851562 C 5.167969 -2.925781 5.167969 -2.964844 5.207031 -3 Z M 5.207031 -3 "/></g></g></g><g fill="#e6d8ce" fill-opacity="1"><g transform="translate(289.893851, 192.749987)"><g><path d="M 2.886719 -10.070312 C 2.773438 -9.726562 2.394531 -9.613281 2.28125 -9.269531 C 2.28125 -9.234375 2.203125 -9.234375 2.164062 -9.195312 C 2.164062 -9.195312 2.128906 -9.195312 2.089844 -9.15625 C 1.898438 -9.15625 1.863281 -9.042969 1.863281 -8.890625 C 1.863281 -8.664062 1.785156 -8.511719 1.597656 -8.433594 C 1.40625 -8.398438 1.292969 -8.246094 1.214844 -8.132812 C 1.179688 -8.054688 1.179688 -7.941406 1.140625 -7.863281 C 1.101562 -7.828125 1.0625 -7.789062 1.027344 -7.789062 C 1.0625 -7.75 1.101562 -7.75 1.140625 -7.714844 C 1.027344 -7.445312 0.949219 -7.179688 0.835938 -6.914062 C 0.492188 -6.308594 0.378906 -5.585938 0 -4.976562 L 0 -4.9375 C -0.0742188 -4.671875 -0.113281 -4.445312 -0.191406 -4.21875 C -0.226562 -3.988281 -0.265625 -3.722656 -0.34375 -3.535156 C -0.457031 -3.265625 -0.378906 -3.039062 -0.417969 -2.8125 C -0.492188 -2.507812 -0.53125 -2.128906 -0.417969 -1.824219 C -0.304688 -1.367188 -0.265625 -0.875 0.0742188 -0.492188 C 0.265625 0.0742188 1.214844 1.027344 1.863281 1.027344 C 2.089844 1.027344 2.316406 1.0625 2.546875 1.0625 C 2.886719 1.0625 3.230469 1.027344 3.570312 0.796875 C 3.683594 0.722656 3.835938 0.683594 3.988281 0.644531 C 4.445312 0.492188 4.902344 0.265625 5.320312 -0.0390625 C 5.773438 -0.378906 6.269531 -0.683594 6.726562 -1.027344 C 7.105469 -1.328125 7.5625 -1.558594 7.828125 -1.9375 C 8.015625 -2.164062 8.207031 -2.316406 8.398438 -2.507812 L 8.851562 -2.964844 C 9.003906 -3.117188 9.117188 -3.265625 9.082031 -3.457031 C 9.082031 -3.722656 9.460938 -3.683594 9.460938 -3.914062 L 9.460938 -3.953125 C 9.613281 -4.066406 9.726562 -4.21875 9.878906 -4.332031 C 10.257812 -4.671875 10.5625 -5.128906 10.980469 -5.433594 C 11.054688 -5.507812 11.054688 -5.625 11.132812 -5.699219 C 11.855469 -6.609375 12.425781 -8.054688 12.273438 -8.09375 C 12.273438 -8.132812 12.273438 -8.132812 12.234375 -8.132812 L 12.234375 -8.09375 C 12.195312 -8.054688 12.160156 -8.015625 12.121094 -7.980469 L 12.082031 -7.980469 L 12.082031 -7.941406 C 12.007812 -7.828125 11.929688 -7.714844 11.816406 -7.5625 C 11.777344 -7.484375 11.742188 -7.445312 11.703125 -7.371094 L 11.703125 -7.257812 C 11.589844 -7.144531 11.4375 -6.953125 11.324219 -6.800781 C 10.941406 -6.308594 10.601562 -5.890625 10.21875 -5.394531 C 9.953125 -5.242188 9.613281 -4.902344 9.460938 -4.636719 C 9.347656 -4.445312 9.195312 -4.292969 9.003906 -4.179688 C 8.585938 -3.875 8.246094 -3.457031 7.828125 -3.117188 C 7.371094 -2.507812 5.890625 -1.671875 5.242188 -1.328125 C 5.242188 -1.292969 5.207031 -1.328125 5.167969 -1.328125 C 5.128906 -1.367188 5.128906 -1.40625 5.167969 -1.445312 C 5.242188 -1.519531 5.28125 -1.597656 5.320312 -1.710938 C 5.355469 -1.710938 5.355469 -1.710938 5.394531 -1.746094 C 5.433594 -1.746094 5.507812 -1.710938 5.585938 -1.746094 C 5.773438 -1.863281 5.964844 -2.015625 6.15625 -2.128906 C 6.191406 -2.164062 6.191406 -2.242188 6.230469 -2.316406 C 6.496094 -2.28125 6.609375 -2.46875 6.761719 -2.621094 L 6.761719 -2.699219 C 6.726562 -2.699219 6.648438 -2.734375 6.648438 -2.699219 C 6.496094 -2.582031 6.308594 -2.507812 6.230469 -2.316406 C 5.851562 -2.242188 5.585938 -2.089844 5.394531 -1.746094 C 5.242188 -1.710938 5.167969 -1.710938 5.089844 -1.671875 C 4.636719 -1.445312 4.140625 -1.179688 3.683594 -0.949219 C 3.417969 -0.835938 3.152344 -0.683594 2.851562 -0.644531 C 2.433594 -0.53125 2.050781 -0.417969 1.597656 -0.417969 C 0.910156 -0.570312 0.53125 -1.292969 0.53125 -1.976562 C 0.570312 -2.164062 0.570312 -2.316406 0.53125 -2.507812 C 0.492188 -3.382812 0.835938 -4.101562 1.214844 -4.902344 C 1.40625 -4.484375 1.746094 -4.21875 2.203125 -4.21875 C 2.886719 -4.445312 3.609375 -4.636719 4.253906 -5.015625 C 4.789062 -5.355469 5.320312 -5.625 5.851562 -5.890625 C 6.078125 -6.042969 6.269531 -6.15625 6.382812 -6.382812 C 6.496094 -6.574219 6.648438 -6.726562 6.839844 -6.839844 C 7.332031 -7.179688 8.28125 -8.28125 8.28125 -8.929688 C 8.359375 -9.382812 8.359375 -9.878906 8.433594 -10.335938 C 8.472656 -10.867188 8.472656 -11.4375 8.28125 -11.96875 L 8.167969 -12.308594 C 7.75 -12.804688 7.371094 -13.03125 6.726562 -13.03125 C 6.574219 -13.03125 6.382812 -13.03125 6.15625 -12.957031 C 5.625 -12.804688 5.207031 -12.425781 4.75 -12.121094 C 4.484375 -11.929688 4.253906 -11.703125 4.027344 -11.511719 C 3.914062 -11.171875 3.570312 -11.09375 3.34375 -10.867188 C 3.265625 -10.753906 3.191406 -10.636719 3.152344 -10.488281 C 3.117188 -10.335938 3.039062 -10.21875 2.886719 -10.183594 Z M 7.75 -11.96875 C 7.863281 -11.742188 8.015625 -11.511719 7.980469 -11.246094 L 7.980469 -10.867188 C 7.980469 -8.015625 4.671875 -6.078125 2.203125 -5.320312 C 1.976562 -5.28125 1.746094 -5.242188 1.519531 -5.242188 C 1.328125 -5.242188 1.253906 -5.320312 1.40625 -5.625 C 1.597656 -5.925781 1.632812 -6.308594 1.898438 -6.535156 C 2.015625 -6.648438 2.015625 -6.839844 2.089844 -6.953125 C 2.242188 -7.105469 2.28125 -7.371094 2.394531 -7.5625 C 2.699219 -7.980469 3.039062 -8.398438 3.34375 -8.777344 C 3.417969 -8.890625 3.496094 -8.96875 3.609375 -9.042969 C 4.027344 -9.347656 4.40625 -9.726562 4.789062 -10.105469 C 5.089844 -10.410156 5.433594 -10.753906 5.8125 -11.019531 C 6.308594 -11.324219 6.761719 -11.777344 7.257812 -12.082031 C 7.332031 -12.121094 7.410156 -12.160156 7.484375 -12.160156 C 7.597656 -12.160156 7.675781 -12.121094 7.75 -11.96875 Z M 1.292969 -7.863281 C 1.292969 -7.75 1.214844 -7.714844 1.140625 -7.714844 L 1.140625 -7.863281 Z M 1.480469 -8.015625 C 1.480469 -8.054688 1.519531 -8.09375 1.558594 -8.132812 C 1.558594 -8.132812 1.632812 -8.09375 1.671875 -8.09375 C 1.632812 -8.054688 1.632812 -8.054688 1.632812 -8.015625 Z M 11.664062 -7.105469 C 11.625 -7.105469 11.625 -7.144531 11.625 -7.144531 C 11.664062 -7.144531 11.664062 -7.105469 11.664062 -7.105469 Z M 2.050781 -9.382812 L 2.089844 -9.347656 L 2.089844 -9.382812 Z M 2.050781 -8.816406 L 2.089844 -8.816406 L 2.089844 -8.777344 Z M 11.703125 -7.21875 C 11.742188 -7.21875 11.777344 -7.179688 11.777344 -7.179688 C 11.742188 -7.179688 11.742188 -7.21875 11.703125 -7.21875 Z M 1.480469 -8.015625 C 1.445312 -8.015625 1.445312 -7.980469 1.445312 -7.980469 C 1.445312 -7.980469 1.445312 -7.980469 1.445312 -8.015625 Z M 1.480469 -8.015625 "/></g></g></g><g fill="#e6d8ce" fill-opacity="1"><g transform="translate(300.987581, 192.749987)"><g><path d="M 4.597656 -9.839844 C 4.671875 -9.839844 4.710938 -9.917969 4.75 -9.953125 C 4.976562 -10.03125 4.976562 -10.257812 5.128906 -10.371094 C 5.546875 -10.636719 5.851562 -11.019531 6.191406 -11.359375 C 6.726562 -11.890625 7.296875 -12.308594 7.902344 -12.691406 C 7.902344 -12.460938 7.902344 -12.460938 7.863281 -12.425781 C 7.636719 -12.308594 7.410156 -12.160156 7.296875 -11.890625 C 7.027344 -11.855469 6.992188 -11.550781 6.761719 -11.4375 C 6.535156 -11.285156 6.308594 -11.09375 6.191406 -10.789062 C 6.15625 -10.753906 6.117188 -10.636719 6.042969 -10.636719 C 5.773438 -10.5625 5.699219 -10.257812 5.472656 -10.105469 C 5.207031 -9.992188 5.128906 -9.6875 4.976562 -9.5 L 4.179688 -8.585938 C 3.953125 -8.320312 3.722656 -8.015625 3.609375 -7.636719 C 3.570312 -7.445312 3.496094 -7.296875 3.34375 -7.179688 C 3.230469 -7.066406 3.152344 -6.953125 3.039062 -6.839844 C 3.191406 -6.800781 3.304688 -6.761719 3.382812 -6.761719 C 3.535156 -6.761719 3.648438 -6.839844 3.683594 -6.992188 C 3.800781 -7.484375 4.21875 -7.789062 4.519531 -8.207031 C 4.671875 -8.359375 4.789062 -8.511719 4.9375 -8.699219 C 5.207031 -9.082031 5.472656 -9.460938 5.8125 -9.765625 C 6.042969 -9.917969 6.191406 -10.144531 6.34375 -10.335938 C 6.460938 -10.601562 6.648438 -10.789062 6.839844 -10.941406 C 7.066406 -11.054688 7.144531 -11.246094 7.21875 -11.4375 C 7.371094 -11.472656 7.484375 -11.589844 7.597656 -11.589844 C 7.636719 -11.589844 7.714844 -11.550781 7.75 -11.511719 C 7.714844 -11.4375 7.714844 -11.324219 7.675781 -11.246094 C 7.597656 -10.980469 7.5625 -10.675781 7.445312 -10.410156 C 7.410156 -10.257812 7.5625 -10.296875 7.597656 -10.21875 C 7.636719 -10.183594 7.636719 -10.144531 7.675781 -10.105469 C 7.636719 -10.105469 7.523438 -10.105469 7.597656 -10.03125 L 7.675781 -10.105469 C 7.75 -10.144531 7.828125 -10.21875 7.789062 -10.257812 C 7.675781 -10.488281 7.636719 -10.636719 7.941406 -10.753906 C 8.09375 -10.828125 8.167969 -10.980469 8.28125 -11.132812 C 8.398438 -11.398438 8.550781 -11.625 8.699219 -11.890625 C 8.851562 -12.121094 8.96875 -12.386719 9.117188 -12.613281 C 9.003906 -13.03125 8.699219 -13.261719 8.398438 -13.527344 C 8.320312 -13.601562 8.246094 -13.640625 8.132812 -13.640625 C 8.015625 -13.640625 7.863281 -13.601562 7.863281 -13.488281 C 7.902344 -13.375 7.863281 -13.335938 7.828125 -13.335938 C 7.75 -13.335938 7.714844 -13.335938 7.675781 -13.335938 C 7.675781 -13.414062 7.597656 -13.449219 7.5625 -13.449219 C 7.296875 -13.375 7.027344 -13.296875 6.953125 -13.03125 C 6.878906 -13.03125 6.800781 -13.03125 6.726562 -12.996094 C 6.382812 -12.726562 6.003906 -12.425781 5.773438 -12.007812 L 6.078125 -12.007812 C 5.738281 -11.550781 5.355469 -11.171875 4.902344 -10.867188 L 4.902344 -11.132812 C 4.558594 -10.941406 4.332031 -10.601562 4.066406 -10.335938 C 4.027344 -10.257812 4.027344 -10.183594 4.027344 -10.105469 C 3.953125 -10.105469 3.875 -10.070312 3.875 -9.953125 L 3.875 -9.992188 C 3.953125 -9.992188 4.027344 -10.03125 4.027344 -10.105469 C 4.101562 -10.183594 4.21875 -10.21875 4.332031 -10.257812 C 4.292969 -10.183594 4.292969 -10.070312 4.253906 -9.992188 C 3.988281 -9.726562 3.761719 -9.382812 3.535156 -9.042969 C 3.457031 -8.890625 3.34375 -8.699219 3.152344 -8.664062 L 3.152344 -8.929688 C 3.152344 -8.929688 3.191406 -8.96875 3.191406 -8.96875 C 3.152344 -8.96875 3.152344 -8.96875 3.152344 -8.96875 L 2.925781 -8.816406 C 2.851562 -8.738281 2.8125 -8.699219 2.734375 -8.664062 C 2.699219 -8.816406 2.734375 -8.929688 2.773438 -9.082031 C 3.117188 -9.839844 3.382812 -10.636719 3.648438 -11.4375 C 3.761719 -11.664062 3.835938 -11.890625 3.953125 -12.121094 C 4.066406 -12.308594 4.066406 -12.539062 4.027344 -12.726562 C 3.988281 -12.917969 3.800781 -12.996094 3.648438 -13.070312 C 3.382812 -13.261719 3.117188 -13.488281 2.851562 -13.679688 C 2.773438 -13.714844 2.660156 -13.679688 2.621094 -13.601562 C 2.582031 -13.5625 2.582031 -13.527344 2.582031 -13.527344 C 2.355469 -12.765625 2.050781 -12.007812 1.785156 -11.285156 C 1.632812 -10.941406 1.480469 -10.5625 1.445312 -10.183594 C 1.367188 -9.839844 1.292969 -9.535156 1.140625 -9.234375 C 0.875 -8.625 0.796875 -7.980469 0.570312 -7.371094 C 0.492188 -7.21875 0.492188 -7.027344 0.53125 -6.953125 C 0.683594 -6.6875 0.570312 -6.496094 0.492188 -6.308594 C 0.34375 -6.003906 0.226562 -5.660156 0.152344 -5.28125 L -0.191406 -3.914062 C -0.226562 -3.648438 -0.191406 -3.417969 -0.304688 -3.191406 C -0.417969 -2.964844 -0.304688 -2.660156 -0.457031 -2.433594 C -0.492188 -1.976562 -0.722656 -1.519531 -0.644531 -1.0625 C -0.609375 -0.796875 -0.644531 -0.570312 -0.761719 -0.34375 L -0.683594 -0.265625 C -0.570312 -0.34375 -0.570312 -0.417969 -0.457031 -0.417969 C -0.457031 -0.417969 -0.417969 -0.378906 -0.378906 -0.378906 C -0.378906 -0.226562 -0.378906 0 -0.34375 0.191406 C -0.304688 0.457031 -0.113281 0.609375 0.113281 0.683594 C 0.226562 0.683594 0.304688 0.644531 0.378906 0.570312 C 0.53125 0.226562 0.609375 -0.113281 0.644531 -0.492188 C 0.683594 -0.835938 0.761719 -1.140625 0.875 -1.480469 C 1.0625 -1.9375 1.179688 -2.433594 1.445312 -2.851562 C 1.671875 -3.230469 1.746094 -3.648438 2.015625 -3.953125 C 2.433594 -4.445312 2.621094 -5.089844 2.851562 -5.699219 C 2.964844 -5.925781 3.039062 -6.15625 3.117188 -6.382812 C 3.117188 -6.421875 3.039062 -6.496094 2.964844 -6.535156 C 2.964844 -6.574219 2.886719 -6.535156 2.851562 -6.535156 C 2.773438 -6.382812 2.660156 -6.230469 2.582031 -6.078125 C 2.507812 -5.890625 2.433594 -5.660156 2.28125 -5.507812 C 2.089844 -5.355469 1.9375 -5.089844 1.824219 -4.863281 C 1.785156 -4.710938 1.710938 -4.597656 1.558594 -4.558594 C 1.597656 -4.863281 1.710938 -5.167969 1.824219 -5.433594 C 1.976562 -5.890625 2.128906 -6.308594 2.507812 -6.609375 C 2.546875 -6.6875 2.660156 -6.761719 2.660156 -6.839844 C 2.773438 -7.332031 3.078125 -7.675781 3.382812 -8.09375 C 3.457031 -8.167969 3.265625 -8.359375 3.417969 -8.398438 C 3.683594 -8.472656 3.609375 -8.699219 3.722656 -8.851562 C 3.875 -9.082031 4.027344 -9.269531 4.179688 -9.535156 C 4.253906 -9.6875 4.40625 -9.800781 4.597656 -9.839844 Z M 6.953125 -12.460938 C 6.914062 -12.386719 6.878906 -12.308594 6.800781 -12.308594 L 6.800781 -12.460938 L 6.496094 -12.460938 C 6.535156 -12.578125 6.648438 -12.652344 6.761719 -12.765625 C 6.839844 -12.84375 6.914062 -12.917969 6.953125 -13.03125 L 7.21875 -13.03125 C 7.144531 -12.878906 7.027344 -12.726562 6.953125 -12.578125 C 6.992188 -12.578125 7.027344 -12.539062 7.066406 -12.539062 C 7.027344 -12.5 6.992188 -12.460938 6.953125 -12.460938 Z M 2.355469 -7.445312 C 2.355469 -7.445312 2.394531 -7.410156 2.394531 -7.371094 C 2.394531 -7.257812 2.316406 -7.179688 2.242188 -7.105469 C 2.203125 -7.105469 2.203125 -7.105469 2.164062 -7.144531 L 2.164062 -7.179688 C 2.164062 -7.296875 2.203125 -7.332031 2.28125 -7.410156 C 2.316406 -7.410156 2.316406 -7.445312 2.355469 -7.445312 Z M 6.953125 -12.613281 C 6.878906 -12.578125 6.800781 -12.539062 6.800781 -12.460938 L 6.953125 -12.460938 Z M 1.480469 -4.484375 C 1.40625 -4.558594 1.519531 -4.558594 1.558594 -4.558594 C 1.519531 -4.558594 1.519531 -4.519531 1.480469 -4.484375 Z M 3.535156 -9.5 L 3.496094 -9.460938 L 3.535156 -9.460938 Z M 4.332031 -10.257812 C 4.332031 -10.257812 4.292969 -10.257812 4.292969 -10.257812 Z M 4.332031 -10.257812 "/></g></g></g><g fill="#e6d8ce" fill-opacity="1"><g transform="translate(308.851972, 192.749987)"><g><path d="M 5.925781 -4.75 C 5.964844 -4.824219 5.890625 -4.902344 5.8125 -4.9375 L 5.8125 -5.015625 C 5.8125 -5.089844 5.8125 -5.167969 5.890625 -5.167969 C 5.890625 -5.167969 5.925781 -5.128906 5.964844 -5.128906 C 6.078125 -5.089844 6.230469 -5.054688 6.230469 -4.824219 L 6.230469 -4.101562 C 6.230469 -3.875 6.34375 -3.648438 6.382812 -3.417969 C 6.421875 -2.316406 7.105469 -1.558594 7.902344 -0.875 C 7.941406 -0.835938 8.054688 -0.835938 8.09375 -0.796875 C 8.167969 -0.761719 8.246094 -0.722656 8.320312 -0.722656 C 8.816406 -0.722656 10.335938 -1.976562 10.675781 -2.316406 C 10.828125 -2.433594 10.753906 -2.621094 10.867188 -2.734375 C 10.980469 -2.8125 11.132812 -2.925781 11.246094 -3.039062 C 11.285156 -3.078125 11.285156 -3.152344 11.246094 -3.152344 L 11.132812 -3.152344 C 10.449219 -2.699219 9.800781 -2.242188 9.082031 -1.898438 C 8.851562 -1.785156 8.625 -1.746094 8.398438 -1.746094 C 8.28125 -1.746094 8.167969 -1.746094 8.054688 -1.785156 C 7.714844 -2.242188 7.5625 -2.8125 7.5625 -3.382812 C 7.5625 -5.355469 8.550781 -9.574219 9.347656 -11.171875 C 9.613281 -11.625 9.652344 -12.121094 9.574219 -12.613281 C 9.382812 -12.726562 9.195312 -12.84375 9.003906 -12.84375 C 8.890625 -12.84375 8.777344 -12.804688 8.664062 -12.726562 C 8.625 -12.691406 8.550781 -12.691406 8.511719 -12.691406 C 8.433594 -12.691406 8.398438 -12.691406 8.320312 -12.726562 C 7.789062 -12.996094 7.257812 -12.996094 6.6875 -12.996094 C 5.773438 -12.957031 4.976562 -12.726562 4.253906 -12.121094 C 3.953125 -11.855469 3.648438 -11.511719 3.265625 -11.359375 C 3.230469 -11.324219 3.191406 -11.285156 3.191406 -11.246094 C 3.078125 -11.019531 2.886719 -10.789062 2.699219 -10.714844 C 2.394531 -10.5625 2.46875 -10.21875 2.203125 -10.03125 C 1.40625 -9.308594 0.835938 -8.132812 0.378906 -7.144531 C 0.304688 -7.066406 0.265625 -6.992188 0.226562 -6.914062 C -0.457031 -4.824219 -0.796875 -3.535156 -0.796875 -1.253906 C -0.796875 -0.53125 -0.53125 0.113281 0.0390625 0.609375 L 0.304688 0.875 C 0.417969 0.988281 0.570312 1.0625 0.761719 1.0625 C 0.949219 1.027344 1.179688 1.027344 1.367188 0.910156 C 1.9375 0.644531 3.265625 -0.226562 3.570312 -0.722656 C 3.648438 -0.835938 3.875 -0.875 3.953125 -1.027344 C 4.066406 -1.253906 4.253906 -1.445312 4.40625 -1.632812 C 4.292969 -1.9375 4.671875 -2.089844 4.710938 -2.316406 C 4.75 -2.546875 4.902344 -2.773438 5.015625 -2.964844 C 5.089844 -3.191406 5.207031 -3.382812 5.355469 -3.609375 C 5.433594 -3.761719 5.546875 -3.875 5.507812 -4.066406 C 5.773438 -4.179688 5.851562 -4.484375 5.925781 -4.75 Z M 0.835938 0.0742188 C 0.796875 0.113281 0.722656 0.113281 0.644531 0.152344 C 0.570312 0.0742188 0.492188 0.0390625 0.492188 0 C 0.417969 -0.0742188 0.417969 -0.191406 0.417969 -0.265625 C 0.417969 -0.53125 0.417969 -0.796875 0.304688 -1.0625 C 0.265625 -1.140625 0.265625 -1.253906 0.304688 -1.367188 C 0.457031 -1.898438 0.457031 -2.433594 0.53125 -3 C 0.609375 -3.191406 0.644531 -3.417969 0.683594 -3.609375 C 0.910156 -4.292969 1.027344 -5.015625 1.328125 -5.660156 C 1.519531 -6.078125 1.632812 -6.496094 1.824219 -6.878906 C 1.898438 -7.027344 2.015625 -7.144531 2.089844 -7.296875 C 2.242188 -7.636719 2.507812 -7.902344 2.582031 -8.246094 C 2.621094 -8.28125 2.621094 -8.359375 2.660156 -8.398438 C 3.039062 -8.664062 3.230469 -9.082031 3.609375 -9.382812 C 3.914062 -9.652344 4.179688 -10.03125 4.519531 -10.296875 C 5.089844 -10.714844 5.625 -11.132812 6.308594 -11.398438 C 6.6875 -11.550781 7.027344 -11.777344 7.332031 -12.082031 C 7.445312 -12.160156 7.484375 -12.195312 7.5625 -12.195312 C 7.636719 -12.195312 7.675781 -12.160156 7.75 -12.082031 C 7.980469 -11.890625 8.015625 -11.777344 7.902344 -11.511719 C 7.714844 -11.054688 7.484375 -10.601562 7.371094 -10.105469 C 7.296875 -9.574219 6.878906 -8.28125 6.609375 -7.789062 C 6.269531 -7.027344 5.890625 -6.269531 5.507812 -5.472656 C 5.320312 -4.976562 4.976562 -4.519531 4.671875 -4.066406 C 4.445312 -3.609375 4.140625 -3.191406 3.914062 -2.734375 C 3.152344 -1.519531 2.015625 -0.683594 0.835938 0.0742188 Z M 5.507812 -4.484375 C 5.546875 -4.519531 5.546875 -4.558594 5.546875 -4.597656 L 5.625 -4.519531 C 5.625 -4.484375 5.585938 -4.445312 5.546875 -4.40625 C 5.546875 -4.445312 5.507812 -4.445312 5.507812 -4.484375 Z M 1.179688 -8.09375 L 1.214844 -8.09375 L 1.214844 -8.054688 Z M 6.191406 -5.738281 L 6.15625 -5.738281 L 6.15625 -5.773438 Z M 1.0625 -7.828125 L 1.0625 -7.789062 L 1.027344 -7.789062 Z M 4.824219 -3.230469 L 4.824219 -3.304688 Z M 4.824219 -3.230469 "/></g></g></g></svg>